<svg width="21" height="24" viewBox="0 0 21 24" fill="none" xmlns="http://www.w3.org/2000/svg">
<path d="M15.2663 0L20.0326 4.76626H15.2663V0ZM12.8832 7.14939H20.0326V22.6397C20.0326 22.9558 19.907 23.2588 19.6836 23.4823C19.4601 23.7058 19.157 23.8313 18.841 23.8313H2.15909C1.84307 23.8313 1.53999 23.7058 1.31653 23.4823C1.09307 23.2588 0.967529 22.9558 0.967529 22.6397V1.19156C0.967529 0.875542 1.09307 0.572463 1.31653 0.349001C1.53999 0.125539 1.84307 0 2.15909 0H12.8832V7.14939ZM4.54222 4.76626C4.54222 5.08228 4.66776 5.38536 4.89123 5.60882C5.11469 5.83228 5.41777 5.95782 5.73379 5.95782H9.30848C9.62451 5.95782 9.92759 5.83228 10.151 5.60882C10.3745 5.38536 10.5 5.08228 10.5 4.76626C10.5 4.45024 10.3745 4.14716 10.151 3.9237C9.92759 3.70023 9.62451 3.57469 9.30848 3.57469H5.73379C5.41777 3.57469 5.11469 3.70023 4.89123 3.9237C4.66776 4.14716 4.54222 4.45024 4.54222 4.76626ZM16.4579 19.065C16.4579 18.749 16.3323 18.4459 16.1089 18.2225C15.8854 17.999 15.5823 17.8735 15.2663 17.8735H5.73379C5.41777 17.8735 5.11469 17.999 4.89123 18.2225C4.66776 18.4459 4.54222 18.749 4.54222 19.065C4.54222 19.3811 4.66776 19.6841 4.89123 19.9076C5.11469 20.1311 5.41777 20.2566 5.73379 20.2566H15.2663C15.5823 20.2566 15.8854 20.1311 16.1089 19.9076C16.3323 19.6841 16.4579 19.3811 16.4579 19.065ZM5.73379 13.1072C5.41777 13.1072 5.11469 13.2328 4.89123 13.4562C4.66776 13.6797 4.54222 13.9828 4.54222 14.2988C4.54222 14.6148 4.66776 14.9179 4.89123 15.1413C5.11469 15.3648 5.41777 15.4903 5.73379 15.4903H15.2663C15.5823 15.4903 15.8854 15.3648 16.1089 15.1413C16.3323 14.9179 16.4579 14.6148 16.4579 14.2988C16.4579 13.9828 16.3323 13.6797 16.1089 13.4562C15.8854 13.2328 15.5823 13.1072 15.2663 13.1072H5.73379Z" fill="#BAA67E"/>
</svg>
