<svg width="25" height="20" viewBox="0 0 25 20" fill="none" xmlns="http://www.w3.org/2000/svg">
<path d="M20.8998 2.23677C19.3571 1.515 17.7077 0.990455 15.9832 0.691772C15.7714 1.07467 15.524 1.58968 15.3534 1.99937C13.5202 1.72369 11.7039 1.72369 9.90449 1.99937C9.73393 1.58968 9.48088 1.07467 9.2672 0.691772C7.54087 0.990455 5.88951 1.51693 4.34687 2.24059C1.23534 6.94251 0.39186 11.5276 0.813603 16.0477C2.87733 17.5888 4.87733 18.525 6.84357 19.1376C7.32905 18.4695 7.76203 17.7592 8.13503 17.0107C7.42464 16.7407 6.74423 16.4076 6.10133 16.0209C6.27189 15.8945 6.43872 15.7624 6.59991 15.6265C10.5212 17.4606 14.7817 17.4606 18.6561 15.6265C18.8192 15.7624 18.986 15.8945 19.1547 16.0209C18.5099 16.4095 17.8276 16.7426 17.1172 17.0126C17.4902 17.7592 17.9213 18.4714 18.4087 19.1395C20.3768 18.5269 22.3787 17.5907 24.4424 16.0477C24.9373 10.8078 23.5971 6.26478 20.8998 2.23677ZM8.66925 13.2679C7.49213 13.2679 6.52679 12.169 6.52679 10.8308C6.52679 9.49256 7.47152 8.39175 8.66925 8.39175C9.86702 8.39175 10.8323 9.49064 10.8117 10.8308C10.8136 12.169 9.86702 13.2679 8.66925 13.2679ZM16.5868 13.2679C15.4096 13.2679 14.4443 12.169 14.4443 10.8308C14.4443 9.49256 15.389 8.39175 16.5868 8.39175C17.7845 8.39175 18.7498 9.49064 18.7292 10.8308C18.7292 12.169 17.7845 13.2679 16.5868 13.2679Z" fill="#BAA67E"/>
</svg>
