<svg width="25" height="20" viewBox="0 0 25 20" fill="none" xmlns="http://www.w3.org/2000/svg">
<path fill-rule="evenodd" clip-rule="evenodd" d="M7.95149 19.448C16.9442 19.448 21.863 12.1122 21.863 5.75144C21.863 5.54262 21.863 5.33537 21.8487 5.12889C22.8055 4.44846 23.6313 3.60363 24.2878 2.63696C23.3966 3.02645 22.4493 3.28188 21.4805 3.39449C22.5005 2.79267 23.2643 1.84717 23.6301 0.731505C22.6697 1.29227 21.6199 1.68803 20.5249 1.90038C18.6732 -0.0376659 15.5763 -0.131565 13.6067 1.69151C12.3376 2.867 11.7979 4.61964 12.1923 6.29137C8.26129 6.09663 4.59842 4.2689 2.1152 1.26212C0.817587 3.46176 1.48129 6.27468 3.62968 7.68715C2.85159 7.66486 2.09018 7.4586 1.4098 7.08555V7.14664C1.41099 9.43781 3.05177 11.4106 5.33243 11.8646C4.61272 12.0582 3.85727 12.0863 3.12565 11.9466C3.76552 13.9082 5.60172 15.2516 7.69292 15.2904C5.96157 16.6301 3.82271 17.3576 1.6207 17.3552C1.23225 17.3541 0.843802 17.3317 0.456543 17.286C2.69311 18.6985 5.2943 19.4481 7.95149 19.4445" fill="#BAA67E"/>
</svg>
