<?xml version="1.0" standalone="no"?>
<!DOCTYPE svg PUBLIC "-//W3C//DTD SVG 20010904//EN"
 "http://www.w3.org/TR/2001/REC-SVG-20010904/DTD/svg10.dtd">
<svg version="1.0" xmlns="http://www.w3.org/2000/svg"
 width="1440.000000pt" height="509.000000pt" viewBox="0 0 1440.000000 509.000000"
 preserveAspectRatio="xMidYMid meet">

<g transform="translate(0.000000,509.000000) scale(0.100000,-0.100000)"
fill="#000000" stroke="none">
<path d="M0 2544 l0 -2545 1044 3 c574 2 1047 6 1051 10 13 12 14 78 2 78 -8
0 -8 3 -2 8 6 4 12 32 13 62 1 30 5 63 8 73 3 9 0 17 -6 17 -6 0 -8 5 -4 11
11 18 14 78 4 84 -5 3 -6 16 -1 28 9 25 7 74 -2 84 -4 3 -2 12 4 20 9 10 8 13
0 13 -7 0 -9 5 -4 13 11 18 11 147 0 147 -5 0 -4 7 3 15 7 8 8 15 3 15 -13 0
-11 43 2 53 6 4 4 11 -5 17 -8 5 -10 10 -5 10 12 0 14 90 2 90 -6 0 -6 5 0 13
11 15 11 197 0 215 -5 6 -5 12 0 12 4 0 8 11 8 25 0 14 -4 25 -9 25 -5 0 -4 6
1 12 6 7 8 33 7 58 -2 25 -5 127 -6 227 -2 101 -7 183 -12 183 -5 0 -4 6 1 13
5 6 8 28 6 47 -2 19 -2 53 -2 75 1 22 1 47 0 55 0 8 0 40 1 70 1 30 1 66 1 80
0 14 -2 95 -4 180 -3 163 1 191 27 166 8 -8 14 -19 14 -25 0 -6 5 -11 10 -11
6 0 10 -6 10 -14 0 -8 6 -27 14 -43 81 -166 101 -211 101 -233 0 -14 3 -29 6
-35 4 -5 5 -28 3 -50 -11 -158 -12 -225 -3 -225 6 0 7 -5 2 -12 -12 -19 -11
-242 1 -250 7 -5 5 -8 -4 -8 -13 0 -13 -1 0 -10 8 -5 10 -10 4 -10 -7 0 -12
-24 -12 -66 0 -36 -2 -68 -5 -70 -3 -3 -1 -19 3 -35 6 -19 5 -29 -2 -29 -6 0
-5 -6 3 -16 7 -9 9 -18 3 -22 -11 -8 -12 -142 -1 -159 5 -8 3 -13 -5 -13 -9 0
-9 -3 2 -10 8 -5 10 -10 4 -10 -14 0 -13 -212 1 -222 6 -5 6 -8 -2 -8 -13 0
-13 -93 -1 -106 4 -3 2 -18 -3 -33 -12 -29 -11 -31 3 -49 7 -8 7 -17 -2 -27
-10 -12 -10 -18 1 -31 10 -13 10 -17 0 -24 -9 -5 -10 -10 -2 -14 7 -5 8 -13 1
-25 -6 -12 -5 -22 2 -29 8 -8 8 -15 -2 -26 -10 -13 -9 -17 11 -25 l24 -10 -23
0 c-15 -1 -21 -5 -16 -13 9 -14 8 -198 -1 -227 -5 -16 -2 -21 12 -21 11 0 14
-3 7 -8 -6 -4 -13 -15 -17 -24 -6 -17 15 -18 350 -18 196 0 353 3 350 7 -4 4
-35 6 -70 6 -46 -1 -56 1 -37 8 21 7 19 8 -15 7 -22 0 -51 4 -65 10 -24 10
-24 11 -3 11 12 1 25 6 28 11 8 14 193 11 201 -2 4 -6 -20 -7 -62 -3 -38 3
-82 2 -99 -4 -29 -9 -29 -9 13 -10 24 -1 41 -5 38 -9 -2 -4 13 -9 35 -9 21 -1
39 2 39 8 0 14 63 11 101 -5 32 -14 33 -14 9 -19 -14 -3 -6 -4 18 -3 55 1 55
18 0 33 l-43 12 54 -1 c35 -1 56 2 59 10 2 7 -6 12 -18 12 -12 0 -18 4 -15 10
3 6 -4 10 -17 11 -22 0 -22 1 -3 9 13 6 -9 9 -67 9 -88 1 -123 14 -67 25 46 9
69 7 44 -4 -14 -6 -2 -9 43 -9 73 -1 86 20 25 38 l-38 10 38 -5 c20 -3 37 -1
37 4 0 16 -24 32 -49 33 -23 2 -24 2 -4 6 27 5 31 25 18 80 -7 30 -15 43 -30
46 -18 4 -18 4 3 6 12 0 22 5 22 11 0 5 -3 9 -7 8 -5 0 -19 4 -33 10 -21 10
-22 12 -5 11 41 -2 51 0 36 10 -8 5 -21 7 -30 4 -13 -4 -13 -3 -2 5 10 7 11
14 1 31 -6 12 -8 31 -4 43 4 13 1 24 -7 29 -11 7 -10 9 4 9 9 0 17 4 17 10 0
10 -40 50 -51 50 -4 0 -10 7 -13 16 -6 16 4 12 33 -13 9 -8 27 -22 40 -32 24
-18 24 -19 8 -44 -32 -49 -15 -90 45 -107 16 -5 16 -8 -4 -48 -26 -51 -20 -68
35 -95 34 -17 51 -47 27 -47 -5 0 -12 -11 -16 -25 -3 -14 -10 -25 -15 -25 -21
0 -6 -27 26 -48 37 -23 42 -42 25 -86 l-10 -26 1143 2 1142 3 -3 22 c-4 31 6
29 18 -2 12 -32 34 -34 25 -2 l-7 22 17 -22 c20 -28 52 -30 60 -3 8 25 11 25
60 0 34 -17 59 -20 183 -20 l143 0 -7 23 c-3 12 -15 41 -25 64 -11 23 -19 46
-19 50 -1 4 -9 26 -20 48 -11 22 -19 46 -20 53 0 6 -4 12 -9 12 -5 0 -12 12
-16 28 -3 15 -15 46 -26 69 -12 24 -18 49 -16 55 3 7 8 -2 12 -19 4 -18 11
-33 16 -33 4 0 11 -16 15 -35 3 -19 10 -35 14 -35 4 0 11 -12 15 -27 4 -16 10
-22 12 -16 3 7 -5 33 -16 58 -12 25 -30 65 -41 89 -11 24 -20 49 -20 57 -1 8
-9 32 -20 54 -11 22 -20 47 -20 55 0 8 -10 26 -21 40 l-20 25 7 -25 c11 -40
38 -100 45 -100 4 0 5 -9 2 -20 -3 -11 0 -20 6 -20 6 0 11 -7 11 -15 0 -29
-19 -14 -26 20 -3 19 -10 35 -14 35 -4 0 -13 20 -19 44 -6 25 -15 48 -21 51
-15 9 -12 42 3 48 8 3 20 1 28 -4 8 -5 19 -9 24 -9 6 0 5 4 -1 8 -9 5 -8 11 2
20 12 11 14 9 14 -12 0 -14 5 -28 10 -31 6 -4 8 -10 5 -15 -5 -8 -1 -19 26
-85 4 -11 11 -36 15 -55 7 -35 7 -35 17 -10 10 25 10 25 18 -10 5 -19 7 -48 5
-65 -2 -16 -1 -22 1 -13 7 28 21 21 28 -15 4 -17 13 -43 21 -57 25 -46 84
-180 84 -190 0 -6 7 -10 15 -10 19 0 19 5 0 38 -19 35 -85 206 -85 221 0 6 -9
28 -20 48 -11 21 -20 45 -20 54 0 9 -7 33 -16 54 -10 24 -13 53 -10 79 4 31 3
35 -3 16 -5 -14 -10 -18 -11 -10 -1 8 -4 24 -7 35 -3 11 -8 51 -10 88 -5 73 7
102 37 92 12 -4 19 1 24 17 11 44 9 47 -30 35 -33 -10 -104 -71 -104 -89 0 -9
-19 -33 -73 -89 -32 -33 -43 -40 -64 -34 -14 3 -32 13 -40 20 -20 20 -3 19 27
-2 22 -16 23 -16 17 0 -4 12 -1 17 11 17 14 0 15 2 2 10 -12 8 -12 10 4 16 13
5 17 14 12 34 -4 24 -1 29 20 34 15 4 32 2 40 -5 10 -8 14 -8 14 -1 0 14 -31
31 -47 25 -17 -6 -36 35 -29 62 4 15 -1 28 -16 41 -18 16 -21 17 -15 2 3 -9 1
-18 -6 -21 -7 -2 -3 -14 11 -34 24 -34 28 -58 12 -68 -8 -5 -7 -12 2 -23 11
-13 11 -14 -2 -10 -8 3 -15 14 -14 26 0 12 -3 19 -8 16 -9 -6 -68 112 -68 138
0 10 9 23 20 30 11 7 20 18 20 25 0 7 5 13 12 13 6 0 9 3 5 6 -3 4 -24 -3 -46
-14 -36 -19 -39 -19 -43 -4 -7 25 3 46 39 85 17 19 29 37 26 41 -3 3 -23 3
-44 0 -22 -3 -39 -2 -39 3 0 12 40 48 63 56 24 9 22 26 -3 20 -26 -7 -51 18
-38 40 13 24 -7 22 -31 -4 -11 -12 -17 -27 -15 -34 3 -7 -3 -19 -14 -26 -10
-8 -22 -30 -26 -49 -19 -100 -25 -141 -25 -201 l-1 -67 -33 0 c-30 0 -33 3
-29 24 2 13 9 24 16 24 6 0 5 4 -3 9 -8 6 -10 14 -5 22 10 17 12 27 20 112 4
43 3 67 -4 67 -12 0 -25 -47 -17 -60 4 -6 1 -10 -4 -10 -6 0 -10 -3 -10 -7 6
-36 -3 -133 -12 -133 -6 0 -9 13 -7 32 3 18 1 44 -3 58 -4 16 -7 -6 -8 -58 -1
-62 -4 -83 -13 -79 -7 2 -11 11 -9 18 2 8 8 61 12 119 5 58 13 121 19 140 5
19 14 69 19 110 8 74 34 142 71 190 10 14 21 22 25 19 3 -3 6 -43 6 -88 1 -79
1 -81 17 -59 34 47 51 86 60 139 6 30 16 75 25 101 13 43 13 48 -2 65 -19 20
-47 95 -61 161 -5 23 -14 50 -19 60 -5 9 -12 35 -15 57 -7 41 -31 83 -42 73
-5 -5 14 -159 32 -263 6 -33 -28 -105 -49 -105 -6 0 -7 -3 -3 -7 4 -4 18 6 33
21 23 25 27 26 35 11 12 -20 3 -77 -20 -125 -21 -45 -28 -51 -93 -91 -30 -18
-56 -36 -59 -39 -3 -3 -24 -16 -47 -28 -31 -16 -49 -19 -66 -13 -34 13 -146
92 -201 142 -27 24 -74 67 -104 94 -114 103 -152 142 -152 156 0 12 2 12 10
-1 9 -13 10 -13 11 0 1 8 1 23 0 33 -1 9 4 17 13 17 20 0 20 17 1 54 -8 15
-12 32 -9 37 3 5 2 9 -3 9 -4 0 -9 11 -9 25 -2 30 0 31 26 5 11 -11 25 -20 30
-20 19 0 10 30 -16 53 -33 28 -76 95 -69 107 3 5 0 12 -6 16 -8 4 -9 3 -5 -4
4 -7 5 -12 3 -12 -9 0 -85 128 -80 134 3 3 23 -18 46 -47 22 -29 49 -61 61
-73 12 -12 31 -33 44 -48 12 -15 27 -24 31 -21 5 3 7 -3 4 -13 -3 -13 7 -26
32 -43 20 -14 34 -30 32 -39 -3 -12 8 -16 45 -18 51 -3 64 12 33 38 -9 7 -14
19 -11 26 3 7 0 11 -7 9 -7 -2 -25 7 -42 20 -25 21 -28 27 -15 35 12 7 8 10
-15 10 -22 0 -26 3 -15 10 8 5 11 12 7 16 -4 4 1 12 9 19 14 9 14 16 5 33 -9
17 -9 22 0 22 8 0 8 4 -1 15 -14 17 -50 20 -50 5 0 -5 7 -10 15 -10 8 0 15 -8
14 -17 0 -10 -3 -13 -5 -7 -3 6 -16 9 -30 6 -24 -4 -24 -5 -6 -18 22 -15 37
-56 18 -48 -6 3 -27 26 -46 51 -19 25 -50 62 -68 82 -45 49 -56 79 -41 108 13
25 24 29 34 13 11 -18 23 -11 28 17 3 18 -3 41 -16 65 -18 30 -19 40 -9 50 9
9 12 8 12 -10 0 -12 15 -42 32 -67 24 -34 29 -48 20 -54 -7 -4 -10 -15 -6 -25
4 -11 1 -21 -7 -26 -7 -5 -10 -12 -7 -15 12 -12 28 6 28 32 0 21 2 24 15 13 8
-7 15 -18 15 -26 0 -7 6 -19 13 -26 7 -7 23 -29 36 -48 13 -19 40 -51 59 -72
19 -20 31 -41 28 -47 -4 -7 -1 -9 8 -5 16 6 40 -28 28 -40 -3 -4 0 -5 8 -2 8
3 30 -8 49 -24 19 -17 45 -33 58 -36 12 -4 23 -12 23 -20 0 -8 5 -14 11 -14 5
0 8 4 5 8 -3 5 15 14 40 20 47 13 69 31 97 79 19 35 21 43 9 43 -5 0 -14 -10
-19 -23 -6 -14 -27 -28 -50 -36 -33 -11 -46 -10 -91 4 -28 9 -56 23 -63 31 -6
8 -16 14 -21 14 -16 0 -141 131 -176 184 -34 52 -38 66 -22 66 5 0 7 7 3 16
-5 15 -7 15 -15 0 -8 -14 -14 -10 -40 26 -17 24 -35 45 -40 46 -17 7 -7 20 12
15 11 -3 17 -9 14 -14 -3 -5 0 -9 6 -9 6 0 9 -4 6 -9 -3 -5 1 -11 8 -14 8 -3
16 -1 19 6 2 7 13 4 33 -9 79 -55 268 -97 324 -73 41 19 38 34 -7 36 -44 2
-76 28 -53 43 13 8 13 10 -2 10 -9 0 -38 11 -65 24 -26 13 -69 34 -96 46 -52
24 -110 76 -102 91 4 5 0 6 -8 4 -16 -7 -197 173 -197 195 0 16 -108 120 -124
120 -9 0 -16 4 -16 9 0 5 -11 12 -25 15 -14 4 -25 11 -25 16 0 6 -6 10 -13 10
-6 0 -35 16 -62 36 -28 20 -59 40 -70 45 -11 6 -38 21 -60 34 -75 45 -173 90
-230 106 -25 7 -23 8 13 4 24 -3 51 -9 60 -14 9 -5 69 -34 133 -65 63 -31 139
-72 167 -91 28 -18 61 -36 72 -40 11 -3 20 -10 20 -14 0 -3 26 -20 57 -36 32
-17 62 -35 68 -41 16 -18 105 -77 158 -104 26 -14 47 -28 47 -31 0 -4 12 -10
27 -14 15 -3 30 -10 33 -14 3 -4 30 -19 60 -35 31 -15 61 -36 68 -47 12 -18
10 -19 -15 -13 -16 4 -48 15 -71 26 -24 11 -46 17 -48 15 -7 -7 41 -35 71 -43
18 -4 24 -11 21 -21 -4 -8 -9 -26 -12 -40 l-7 -25 64 5 c127 11 183 26 249 68
8 5 23 12 33 16 15 5 18 12 13 36 -4 17 -10 33 -15 37 -4 3 -14 16 -20 29 -7
13 -43 55 -79 93 -37 38 -68 73 -70 78 -6 16 57 30 83 18 14 -6 27 -9 29 -7 2
2 -2 30 -10 61 -11 41 -12 66 -5 90 l9 33 1 -32 c1 -19 8 -36 19 -42 9 -6 11
-11 5 -11 -7 0 -13 -5 -13 -11 0 -6 7 -9 15 -5 11 4 15 -2 15 -27 0 -18 -4
-38 -9 -46 -5 -8 -7 -20 -4 -28 7 -19 36 45 62 137 12 41 28 89 35 105 47 104
109 295 96 295 -17 0 -11 22 8 27 20 5 47 42 38 51 -4 3 -23 25 -43 48 l-36
43 -18 -24 c-26 -32 -24 -52 9 -72 15 -10 30 -22 34 -27 8 -12 1 -26 -13 -26
-6 0 -7 5 -3 12 5 7 2 9 -9 5 -12 -4 -14 -2 -10 10 4 11 2 14 -5 9 -6 -4 -23
1 -37 10 -14 9 -25 12 -25 6 0 -6 5 -14 10 -17 15 -9 42 -65 31 -65 -11 0 -35
37 -45 67 -5 15 -1 27 14 41 12 11 23 37 26 58 3 30 2 34 -5 19 -5 -11 -10
-30 -10 -42 -1 -31 -21 -29 -21 2 0 14 4 25 9 25 5 0 12 14 16 31 5 24 2 35
-14 50 -11 10 -23 19 -27 19 -3 0 -19 11 -35 24 -27 23 -27 24 -5 22 13 0 22
-5 20 -11 -2 -5 16 -21 41 -34 38 -20 44 -27 39 -47 -4 -13 -2 -24 4 -24 11 0
24 28 18 39 -6 9 77 12 84 3 3 -4 15 -13 28 -20 18 -10 22 -10 22 3 0 8 -3 15
-7 15 -5 0 -35 23 -68 51 -145 123 -194 177 -235 258 -17 34 -24 41 -32 30 -7
-10 -7 -8 -3 9 4 13 2 29 -5 37 -6 7 -15 27 -20 44 -7 24 -5 31 5 31 8 0 17
-5 20 -10 4 -6 21 -16 39 -24 17 -7 44 -28 59 -45 15 -18 27 -28 27 -22 0 23
-100 125 -165 169 -55 38 -271 142 -294 142 -6 0 -11 5 -11 10 0 6 -12 10 -26
10 -17 0 -28 -6 -31 -20 -11 -43 -33 -13 -33 47 0 50 29 273 39 303 20 55 20
59 7 54 -7 -3 -23 -23 -37 -45 -13 -22 -29 -46 -35 -52 -5 -7 -26 -50 -46 -97
-32 -75 -45 -120 -65 -233 -3 -16 -18 -36 -37 -49 -52 -36 -103 -97 -136 -165
-30 -61 -44 -118 -71 -290 -9 -57 -15 -72 -28 -71 -45 3 -51 -1 -51 -42 0 -34
-4 -42 -32 -56 -47 -24 -60 -41 -57 -72 4 -33 -16 -63 -53 -79 -16 -7 -28 -16
-28 -21 0 -9 79 -57 170 -104 14 -7 31 -18 38 -25 7 -7 18 -13 24 -13 5 0 28
-15 51 -32 23 -18 49 -37 58 -43 9 -5 45 -34 80 -64 35 -29 87 -72 114 -95 48
-39 148 -138 171 -168 49 -64 20 -46 -67 42 -57 58 -138 133 -179 165 -41 33
-77 63 -80 66 -3 3 -16 12 -29 19 -14 7 -30 17 -35 22 -63 51 -206 140 -248
153 -12 4 -25 11 -28 15 -3 4 -30 18 -60 32 -53 24 -94 37 -230 73 -141 37
-203 60 -267 101 -37 23 -69 41 -71 39 -2 -2 2 -29 9 -62 26 -122 23 -171 -12
-248 -23 -52 -33 -90 -36 -145 l-6 -75 -66 -64 c-47 -45 -67 -59 -69 -47 -2 9
-8 16 -13 16 -5 0 -9 6 -9 13 0 8 -8 24 -19 35 -10 12 -29 43 -42 69 -13 27
-27 50 -30 53 -3 3 -12 22 -18 42 -7 21 -17 40 -22 44 -14 8 -8 93 8 106 17
14 17 34 -1 41 -23 9 -31 79 -25 210 3 67 2 127 -2 132 -25 38 -28 212 -3 249
18 29 76 68 164 113 90 45 42 44 -56 -2 -82 -38 -104 -43 -104 -20 0 8 -4 15
-9 15 -5 0 -9 181 -8 438 l2 439 60 78 c33 44 64 85 68 92 7 11 -298 13 -1648
13 l-1655 0 0 -2546z m2266 2260 c59 -34 67 -52 50 -101 -11 -34 -32 -28 -82
22 -38 37 -44 48 -38 67 4 13 7 26 6 31 -4 14 20 7 64 -19z m-102 -70 c3 -8 2
-12 -4 -9 -6 3 -10 10 -10 16 0 14 7 11 14 -7z m-874 -209 c0 -8 -4 -15 -8
-15 -5 0 -9 7 -9 15 0 8 4 15 9 15 4 0 8 -7 8 -15z m838 -62 c55 -54 125 -155
139 -201 17 -57 20 -78 29 -263 8 -161 1 -224 -22 -215 -12 5 -12 1 1 -24 23
-45 19 -84 -14 -119 -37 -39 -51 -39 -97 1 -68 60 -71 74 -73 396 -2 230 0
285 10 275 7 -7 20 -13 29 -13 9 0 11 3 5 8 -26 17 -54 71 -60 114 -11 73 6
86 53 41z m-493 -23 c3 -5 -1 -10 -10 -10 -9 0 -13 5 -10 10 3 6 8 10 10 10 2
0 7 -4 10 -10z m77 -57 c-9 -14 -10 -14 -16 5 -9 29 3 51 16 28 5 -10 5 -23 0
-33z m3566 -618 c-3 -3 -9 2 -12 12 -6 14 -5 15 5 6 7 -7 10 -15 7 -18z m-68
-70 c7 -9 8 -15 2 -15 -5 0 -12 7 -16 15 -3 8 -4 15 -2 15 2 0 9 -7 16 -15z
m-68 -78 c18 -19 41 -37 52 -40 10 -4 16 -13 13 -21 -4 -9 0 -12 11 -10 16 4
112 -73 112 -89 0 -12 -15 -8 -36 11 -10 9 -38 30 -61 46 -24 16 -40 32 -37
37 3 5 -1 9 -8 9 -8 0 -29 18 -47 40 -18 22 -38 37 -43 33 -7 -3 -8 -1 -4 5
10 17 11 16 48 -21z m218 29 c0 -3 -4 -8 -10 -11 -5 -3 -10 -1 -10 4 0 6 5 11
10 11 6 0 10 -2 10 -4z m-320 -121 c0 -5 -5 -3 -10 5 -5 8 -10 20 -10 25 0 6
5 3 10 -5 5 -8 10 -19 10 -25z m128 -177 l-1 -43 -6 45 c-4 30 -11 45 -21 45
-8 1 -14 6 -13 12 2 7 -15 30 -37 52 -22 22 -40 43 -40 46 0 4 27 -20 60 -53
56 -56 60 -63 58 -104z m140 35 c-5 -32 -12 -60 -15 -63 -3 -3 -3 10 1 29 3
18 6 46 6 62 0 16 4 29 8 29 5 0 5 -26 0 -57z m-31 -115 c-3 -7 -5 -2 -5 12 0
14 2 19 5 13 2 -7 2 -19 0 -25z m118 22 c4 -7 -3 -8 -22 -4 -38 9 -42 14 -10
14 14 0 29 -5 32 -10z m-30 -38 c-3 -3 -11 0 -18 7 -9 10 -8 11 6 5 10 -3 15
-9 12 -12z m-3118 2 c-3 -3 -12 -4 -19 -1 -8 3 -5 6 6 6 11 1 17 -2 13 -5z
m3020 -36 c-3 -8 -6 -5 -6 6 -1 11 2 17 5 13 3 -3 4 -12 1 -19z m-513 -166 c2
-15 1 -20 -1 -12 -8 23 -64 91 -72 86 -4 -3 -7 4 -7 14 0 29 76 -55 80 -88z
m273 43 c15 -13 24 -25 18 -25 -5 0 -23 11 -39 25 -16 14 -24 25 -18 25 6 0
24 -11 39 -25z m-352 -5 c3 -6 -1 -7 -9 -4 -18 7 -21 14 -7 14 6 0 13 -4 16
-10z m562 -12 c-3 -8 -6 -5 -6 6 -1 11 2 17 5 13 3 -3 4 -12 1 -19z m-522 -18
c3 -6 -1 -7 -9 -4 -18 7 -21 14 -7 14 6 0 13 -4 16 -10z m-555 -65 c23 -8 59
-28 80 -45 21 -16 43 -30 49 -30 6 0 11 -4 11 -10 0 -5 12 -16 28 -25 15 -9
41 -24 57 -35 17 -11 41 -25 55 -32 14 -7 31 -18 38 -25 7 -7 18 -13 23 -13 5
0 9 -7 9 -15 0 -8 -4 -15 -10 -15 -13 0 -43 -67 -51 -115 l-6 -40 -1 39 -2 40
-33 -32 c-18 -18 -37 -29 -42 -25 -4 5 -6 3 -2 -2 3 -6 -7 -25 -23 -43 l-29
-33 -22 22 -22 22 21 -5 c14 -4 22 -2 22 6 0 7 21 34 46 59 42 43 44 47 22 47
-33 0 -86 21 -133 52 -48 31 -137 126 -130 138 3 5 1 11 -5 15 -12 8 -14 115
-1 115 5 0 27 -7 51 -15z m974 -11 c9 -24 2 -26 -12 -4 -7 11 -8 20 -3 20 5 0
12 -7 15 -16z m-1794 -108 c-7 -14 -19 -27 -27 -30 -14 -6 -14 -4 17 41 19 29
27 20 10 -11z m-53 -71 c-9 -8 -19 -24 -22 -35 -3 -11 -10 -20 -15 -20 -4 0
-11 -11 -14 -25 -4 -14 -11 -23 -16 -20 -11 7 8 45 29 59 11 7 11 10 0 17 -12
7 -11 9 1 9 8 0 21 9 28 21 7 12 16 18 19 15 3 -3 -2 -12 -10 -21z m1789 -68
c43 -66 51 -83 57 -116 4 -18 2 -51 -4 -73 -8 -32 -14 -39 -31 -36 -21 3 -38
25 -74 95 -9 18 -36 51 -61 74 -51 46 -48 54 25 65 23 3 42 10 42 15 0 20 26
7 46 -24z m-539 -39 c-2 -13 -4 -5 -4 17 -1 22 1 32 4 23 2 -10 2 -28 0 -40z
m-1338 -49 c-6 -19 -15 -43 -20 -54 -5 -11 -13 -49 -18 -85 -5 -36 -9 -53 -10
-37 0 15 -1 30 0 33 0 4 -5 10 -11 14 -8 5 -7 11 4 23 9 8 17 36 18 61 2 27 8
46 15 46 6 0 15 9 18 21 4 11 9 19 11 16 2 -2 -1 -19 -7 -38z m37 -144 c-8
-39 -23 -91 -33 -117 -17 -46 -17 -48 1 -61 19 -14 19 -16 1 -93 -10 -44 -22
-86 -27 -94 -13 -25 -39 -103 -48 -145 -4 -22 -12 -53 -17 -70 l-10 -30 -5 28
c-3 15 -1 30 4 33 11 7 6 36 -7 46 -6 5 -4 8 5 9 8 1 -1 5 -20 9 l-35 7 43 2
c24 0 41 5 38 9 -3 5 0 42 6 83 6 41 12 89 12 106 1 18 4 33 7 33 3 0 7 28 8
63 2 84 11 147 22 147 5 0 9 4 9 10 0 22 44 110 52 102 4 -4 1 -39 -6 -77z
m1059 34 c7 -10 -31 -59 -45 -59 -3 0 -11 14 -17 30 -10 27 -9 30 7 30 10 0
21 -6 23 -12 3 -8 6 -6 6 5 1 19 16 23 26 6z m175 -35 c0 -8 -4 -12 -10 -9 -5
3 -10 10 -10 16 0 5 5 9 10 9 6 0 10 -7 10 -16z m77 -56 c-2 -13 -4 -5 -4 17
-1 22 1 32 4 23 2 -10 2 -28 0 -40z m-246 -28 c13 -10 18 -19 12 -20 -7 0 -13
4 -13 8 0 5 -10 14 -22 20 -13 6 -18 11 -12 11 7 1 22 -8 35 -19z m179 -74
c-7 -7 -10 -6 -10 2 0 7 -12 12 -26 12 -14 0 -40 6 -57 14 -18 8 -39 17 -47
20 -15 5 67 -2 105 -10 11 -2 14 -1 8 2 -10 4 -8 11 5 29 l17 23 7 -41 c5 -24
4 -45 -2 -51z m-113 78 c-3 -3 -12 -4 -19 -1 -8 3 -5 6 6 6 11 1 17 -2 13 -5z
m70 0 c-3 -3 -12 -4 -19 -1 -8 3 -5 6 6 6 11 1 17 -2 13 -5z m-32 -14 c3 -5 1
-10 -4 -10 -6 0 -11 5 -11 10 0 6 2 10 4 10 3 0 8 -4 11 -10z m39 -94 c-6 -16
-55 -36 -85 -36 -11 0 -19 -4 -19 -9 0 -5 -10 -11 -21 -13 -12 -2 -35 -19 -51
-39 -26 -32 -30 -48 -35 -116 -7 -101 -19 -118 -70 -107 -38 8 -38 8 -8 12 35
5 45 16 45 58 0 58 41 155 82 195 32 31 49 39 94 45 30 3 57 10 60 15 8 14 14
10 8 -5z m276 -16 c0 -5 -2 -10 -4 -10 -3 0 -8 5 -11 10 -3 6 -1 10 4 10 6 0
11 -4 11 -10z m-535 -200 c3 -5 1 -10 -4 -10 -6 0 -11 5 -11 10 0 6 2 10 4 10
3 0 8 -4 11 -10z m-23 -52 c-6 -6 -16 -7 -22 -3 -9 6 -9 9 1 16 17 10 34 0 21
-13z m-45 -34 c-3 -3 -12 -4 -19 -1 -8 3 -5 6 6 6 11 1 17 -2 13 -5z m50 -136
c-3 -7 -5 -2 -5 12 0 14 2 19 5 13 2 -7 2 -19 0 -25z m553 12 c22 -22 19 -25
-11 -10 -10 6 -19 15 -19 20 0 15 8 12 30 -10z m-1620 -27 c0 -16 -4 -23 -8
-17 -4 7 -16 14 -27 17 -17 4 -16 5 5 7 l25 2 -25 8 -25 8 28 1 c23 1 27 -3
27 -26z m194 1 c-5 -18 0 -34 15 -54 19 -27 20 -30 4 -39 -13 -7 -16 -20 -15
-51 3 -41 2 -42 -23 -36 -44 11 -66 -1 -59 -31 6 -24 5 -25 -20 -19 -14 3 -25
3 -24 -2 2 -4 -14 -24 -34 -45 -21 -21 -38 -33 -38 -27 0 5 -7 10 -16 10 -14
0 -14 2 0 15 8 8 23 15 33 15 13 0 15 2 5 9 -11 6 -10 11 3 25 15 15 15 16 0
16 -11 0 -15 5 -11 15 3 8 0 15 -7 16 -8 0 -7 2 2 6 11 5 11 7 0 14 -11 7 -10
9 4 9 19 0 20 2 11 24 -3 9 -15 16 -25 16 -11 0 -19 7 -19 18 0 12 3 13 8 4 7
-10 15 -9 40 4 18 8 32 20 32 25 0 5 5 9 11 9 6 0 29 15 52 34 35 28 53 39 75
45 1 1 -1 -11 -4 -25z m719 -21 c-7 -2 -14 -21 -14 -41 -1 -20 -5 -50 -10 -67
-5 -20 -6 -9 -3 35 6 70 9 80 27 79 9 0 9 -2 0 -6z m-923 -28 c0 -8 -4 -15 -8
-15 -5 0 -9 7 -9 15 0 8 4 15 9 15 4 0 8 -7 8 -15z m1041 -16 c-5 -13 -10 -19
-10 -12 -1 15 10 45 15 40 3 -2 0 -15 -5 -28z m513 -5 c7 -19 2 -18 -19 6 -16
17 -16 20 -3 15 9 -4 19 -13 22 -21z m-549 -63 c-25 -72 -34 -80 -75 -65 l-35
13 35 -5 c34 -5 36 -4 59 50 29 64 38 68 16 7z m640 30 c-3 -5 -1 -12 5 -16 5
-3 10 -11 10 -17 0 -7 -6 -6 -15 2 -17 14 -20 40 -4 40 5 0 8 -4 4 -9z m-1625
-241 c19 -19 19 -21 3 -27 -10 -4 -20 -9 -23 -12 -3 -4 -18 -11 -35 -16 -44
-15 -46 -56 -4 -83 30 -19 31 -20 10 -27 -11 -3 -21 -10 -21 -14 0 -11 -50
-61 -60 -61 -17 0 -2 35 16 39 19 3 34 18 34 35 0 5 -8 2 -17 -5 -9 -8 -14 -9
-10 -2 4 6 1 14 -5 16 -8 3 -6 6 5 6 20 1 22 14 5 40 -17 27 -6 44 46 69 40
20 45 26 36 43 -14 25 -5 24 20 -1z m2242 -252 c-5 -30 -6 -31 -13 -10 -9 23
-2 55 10 47 4 -2 6 -19 3 -37z m-2382 -2 c0 -2 -7 -9 -15 -16 -13 -11 -14 -10
-9 4 5 14 24 23 24 12z m2366 -85 c-11 -93 -34 -236 -35 -223 -1 6 -8 12 -16
12 -10 0 -15 9 -14 28 l1 27 7 -25 c10 -37 19 -14 26 75 4 44 12 88 17 98 5
11 7 30 3 44 -4 17 -2 23 6 18 7 -5 9 -24 5 -54z m-2411 40 c-3 -5 -24 -24
-46 -42 -32 -25 -38 -28 -28 -11 8 12 19 22 26 22 7 0 13 6 13 14 0 8 8 17 18
19 9 3 18 5 20 6 2 0 1 -3 -3 -8z m2382 -33 c-3 -7 -5 -2 -5 12 0 14 2 19 5
13 2 -7 2 -19 0 -25z m-2449 -83 c-3 -3 -9 2 -12 12 -6 14 -5 15 5 6 7 -7 10
-15 7 -18z m66 -85 c6 -25 6 -25 -5 -2 -7 12 -19 22 -27 22 -9 0 -12 3 -9 6 3
4 1 16 -5 28 -9 18 -8 18 14 -4 14 -14 28 -36 32 -50z m996 -32 c0 -4 -7 -5
-15 -2 -8 4 -15 10 -15 16 0 5 -5 6 -12 2 -7 -4 -8 -3 -4 4 5 9 12 8 26 -1 11
-6 20 -15 20 -19z m-1009 -82 c16 -17 10 -28 -6 -12 -8 8 -14 25 -14 38 1 20
2 21 6 3 3 -11 9 -24 14 -29z m2389 -40 c0 -13 -7 -26 -15 -30 -16 -6 -20 10
-9 38 9 24 24 19 24 -8z m-2338 -6 c12 -11 17 -20 11 -20 -6 0 -14 -13 -18
-30 -4 -16 -11 -30 -16 -30 -14 0 -11 18 7 45 16 24 15 25 -5 25 -14 0 -19 5
-15 15 8 19 11 19 36 -5z m1948 -15 c69 -8 161 -19 205 -24 44 -6 145 -10 225
-11 80 0 150 -4 156 -8 7 -4 17 -34 24 -67 17 -82 31 -117 55 -137 33 -27 16
-32 -100 -28 -85 2 -62 18 30 20 33 1 51 5 40 7 -11 3 -23 10 -27 17 -5 7 -8
6 -8 -4 -1 -11 -4 -10 -15 4 -17 23 -20 46 -4 46 5 0 8 -4 4 -9 -3 -5 -1 -12
5 -16 6 -4 10 10 10 35 0 27 -4 39 -11 35 -6 -4 -8 -13 -5 -21 3 -8 2 -14 -3
-14 -13 0 -22 73 -11 84 6 6 10 12 10 16 0 3 -55 6 -123 8 -109 2 -440 36
-456 46 -4 3 -45 10 -91 16 -47 6 -91 16 -100 21 -10 7 -3 8 25 4 22 -3 96
-12 165 -20z m-1930 -115 c0 -5 10 -10 22 -12 29 -4 34 -28 11 -54 -17 -20
-19 -20 -36 -3 -18 16 -17 17 15 24 l33 8 -32 15 c-32 15 -56 46 -27 35 7 -3
14 -9 14 -13z m2587 4 c-3 -3 -12 -4 -19 -1 -8 3 -5 6 6 6 11 1 17 -2 13 -5z
m277 -26 c13 -92 26 -232 22 -235 -3 -3 -7 17 -11 44 -3 26 -11 57 -17 67 -6
11 -10 47 -10 80 0 48 -2 54 -8 31 -7 -29 -10 -29 -14 -2 -3 17 13 47 24 47 5
0 11 -15 14 -32z m-3114 -12 c0 -11 -19 -15 -25 -6 -3 5 1 10 9 10 9 0 16 -2
16 -4z m37 -12 c-3 -3 -12 -4 -19 -1 -8 3 -5 6 6 6 11 1 17 -2 13 -5z m3023
-1 c-1 -15 -30 -46 -37 -40 -3 4 2 16 12 27 19 21 25 24 25 13z m-390 -103 c0
-5 -2 -10 -4 -10 -3 0 -8 5 -11 10 -3 6 -1 10 4 10 6 0 11 -4 11 -10z m-2397
-37 c-7 -2 -21 -2 -30 0 -10 3 -4 5 12 5 17 0 24 -2 18 -5z m2090 -20 c-7 -2
-19 -2 -25 0 -7 3 -2 5 12 5 14 0 19 -2 13 -5z m432 -50 c28 -31 58 -66 68
-76 23 -24 67 -105 67 -125 0 -13 -3 -13 -12 -4 -19 19 -109 15 -145 -8 -18
-11 -33 -24 -33 -30 0 -24 -29 -4 -112 79 -75 76 -89 94 -83 113 4 16 3 19 -3
9 -8 -11 -13 -9 -25 10 -22 34 -25 63 -7 66 9 2 27 -17 44 -46 16 -26 55 -77
87 -112 32 -35 59 -67 59 -71 0 -5 5 -8 10 -8 18 0 11 20 -15 44 -26 24 -32
42 -16 48 17 5 -3 73 -22 76 -17 3 -17 1 -2 -34 8 -20 13 -39 11 -42 -5 -4
-55 48 -56 59 0 5 -13 22 -50 66 -7 8 -5 12 8 12 9 0 37 3 62 6 25 3 53 6 62
6 10 0 20 4 23 10 12 19 32 7 80 -48z m-340 17 c-3 -5 0 -10 8 -10 10 0 13 -7
10 -19 -5 -20 -33 -38 -33 -21 0 6 5 10 11 10 5 0 7 5 4 11 -4 6 -13 8 -21 5
-12 -4 -12 -2 -4 14 6 11 15 20 21 20 6 0 7 -4 4 -10z m-45 -39 c0 -6 -11 -23
-25 -38 -18 -21 -23 -23 -18 -8 6 17 34 55 40 55 2 0 3 -4 3 -9z m-2397 -18
c-13 -2 -35 -2 -50 0 -16 2 -5 4 22 4 28 0 40 -2 28 -4z m2427 -16 c0 -4 -19
-28 -51 -65 -6 -7 -13 -11 -16 -8 -3 3 10 21 28 41 32 33 39 39 39 32z m-2813
-13 c-3 -3 -12 -4 -19 -1 -8 3 -5 6 6 6 11 1 17 -2 13 -5z m306 -21 c-7 -2
-19 -2 -25 0 -7 3 -2 5 12 5 14 0 19 -2 13 -5z m44 1 c-3 -3 -12 -4 -19 -1 -8
3 -5 6 6 6 11 1 17 -2 13 -5z m276 -31 c-12 -2 -24 -12 -26 -21 -3 -12 -5 -10
-6 6 -1 18 4 22 27 21 22 -1 23 -2 5 -6z m-190 -30 c-7 -2 -21 -2 -30 0 -10 3
-4 5 12 5 17 0 24 -2 18 -5z m210 0 c-7 -2 -19 -2 -25 0 -7 3 -2 5 12 5 14 0
19 -2 13 -5z m77 -3 c0 -12 -17 -12 -45 0 -17 7 -15 9 13 9 17 1 32 -3 32 -9z
m1990 -20 c-6 -11 -15 -20 -20 -20 -6 0 -2 9 7 20 10 11 19 20 21 20 1 0 -2
-9 -8 -20z m-2082 -2 c-25 -7 -43 -6 -55 1 -14 8 -6 10 37 10 55 -1 55 -1 18
-11z m-450 -25 c-10 -2 -28 -2 -40 0 -13 2 -5 4 17 4 22 1 32 -1 23 -4z m59 1
c-3 -3 -12 -4 -19 -1 -8 3 -5 6 6 6 11 1 17 -2 13 -5z m40 0 c-3 -3 -12 -4
-19 -1 -8 3 -5 6 6 6 11 1 17 -2 13 -5z m303 -13 c0 -12 -39 -25 -47 -17 -4 3
2 6 13 6 16 0 17 2 4 10 -12 8 -11 10 8 10 12 0 22 -4 22 -9z m90 -21 c0 -8
-71 -22 -79 -15 -2 3 3 5 12 5 10 0 17 3 17 8 0 4 11 8 25 8 14 1 25 -2 25 -6z
m-223 -6 c-3 -3 -12 -4 -19 -1 -8 3 -5 6 6 6 11 1 17 -2 13 -5z m238 -44 c-4
-6 -17 -9 -30 -7 -40 5 -41 17 -1 17 23 0 35 -4 31 -10z m-552 -17 c-7 -2 -19
-2 -25 0 -7 3 -2 5 12 5 14 0 19 -2 13 -5z m437 -13 c0 -5 -4 -10 -10 -10 -5
0 -10 5 -10 10 0 6 5 10 10 10 6 0 10 -4 10 -10z m-315 -9 c-9 -8 -36 -10 -30
-2 2 4 11 8 20 8 8 0 13 -3 10 -6z m285 5 c0 -2 -7 -7 -16 -10 -8 -3 -12 -2
-9 4 6 10 25 14 25 6z m-353 -12 c-3 -3 -12 -4 -19 -1 -8 3 -5 6 6 6 11 1 17
-2 13 -5z m182 -25 c-17 -11 -103 -9 -121 2 -7 5 18 8 61 8 46 -1 68 -4 60
-10z m189 -6 c-16 -2 -40 -2 -55 0 -16 2 -3 4 27 4 30 0 43 -2 28 -4z m-411
-19 c-3 -3 -12 -4 -19 -1 -8 3 -5 6 6 6 11 1 17 -2 13 -5z m538 -3 c3 -6 -11
-8 -37 -5 -56 7 -62 14 -10 14 22 0 43 -4 47 -9z m-347 -16 c-8 -9 -138 -15
-138 -7 0 5 32 9 71 10 39 0 69 -1 67 -3z m-301 -11 c-3 -3 -12 -4 -19 -1 -8
3 -5 6 6 6 11 1 17 -2 13 -5z m66 -11 c-7 -2 -19 -2 -25 0 -7 3 -2 5 12 5 14
0 19 -2 13 -5z m217 -11 c0 -4 -16 -6 -35 -4 -19 2 -35 6 -35 8 0 2 16 4 35 4
19 0 35 -4 35 -8z"/>
<path d="M4450 2760 c0 -5 -7 -10 -17 -10 -9 0 -14 -3 -10 -6 8 -8 47 5 47 17
0 5 -4 9 -10 9 -5 0 -10 -4 -10 -10z"/>
<path d="M5101 2564 c0 -11 3 -14 6 -6 3 7 2 16 -1 19 -3 4 -6 -2 -5 -13z"/>
<path d="M5451 472 c-25 -36 -29 -61 -6 -42 8 7 21 10 30 7 11 -5 13 0 8 26
-8 43 -8 43 -32 9z"/>
<path d="M11549 5082 c6 -2 9 -8 5 -13 -3 -5 4 -9 15 -9 12 0 21 -4 21 -8 0
-5 32 -4 70 1 78 11 93 27 28 28 -24 0 -67 2 -97 3 -29 1 -48 0 -42 -2z"/>
<path d="M11773 5083 c9 -2 23 -2 30 0 6 3 -1 5 -18 5 -16 0 -22 -2 -12 -5z"/>
<path d="M12015 5080 c27 -12 35 -12 35 0 0 6 -12 10 -27 9 -25 0 -26 -1 -8
-9z"/>
<path d="M12125 5082 c20 -7 33 -32 16 -32 -5 0 -12 -13 -16 -29 -6 -27 -11
-30 -48 -33 -42 -3 -42 -3 -46 -48 -9 -109 -7 -127 19 -149 14 -12 35 -20 48
-17 14 2 22 -2 22 -11 0 -9 9 -13 28 -11 34 4 38 -25 3 -30 -13 -2 -21 0 -18
5 5 8 -18 9 -85 4 -10 0 -18 -6 -18 -12 0 -8 15 -10 44 -7 35 4 42 3 33 -7 -7
-7 -30 -11 -54 -9 -24 1 -45 -2 -48 -7 -4 -5 13 -10 37 -11 l43 -1 -45 -7
c-49 -8 -30 -13 38 -10 26 1 42 -3 42 -10 0 -6 -4 -8 -10 -5 -5 3 -10 2 -10
-3 0 -5 -26 -7 -57 -6 -47 2 -51 1 -23 -5 28 -6 32 -9 17 -16 -10 -4 -33 -5
-52 -2 -21 3 -35 1 -38 -6 -3 -8 16 -12 65 -13 59 -1 68 1 63 15 -4 13 -2 13
9 -1 17 -23 22 -23 29 1 4 15 10 18 28 13 l24 -6 -25 -7 c-22 -6 -20 -7 12 -8
40 -1 64 -21 26 -21 -19 0 -20 -2 -8 -10 11 -8 9 -9 -11 -5 -20 5 -26 2 -26
-10 0 -13 7 -16 29 -11 15 3 28 1 28 -4 0 -6 11 -10 25 -10 14 0 24 3 23 8 -1
4 4 28 11 54 18 64 12 76 -46 81 l-48 4 50 1 c82 1 85 1 85 16 0 8 -8 14 -17
14 -10 -1 -31 2 -46 6 -19 4 -26 3 -22 -4 4 -6 -6 -10 -27 -9 -28 1 -29 2 -10
7 13 4 23 10 23 15 -2 22 0 27 14 27 8 0 15 -7 15 -15 0 -20 12 -19 38 4 13
10 31 16 45 14 14 -3 29 3 41 16 17 19 18 46 4 126 -3 17 3 20 41 23 24 2 64
-2 88 -10 l43 -12 2 -111 c1 -60 2 -173 4 -250 1 -79 -3 -145 -8 -152 -5 -7
-7 -16 -4 -22 3 -5 0 -12 -6 -15 -10 -5 -10 -7 0 -12 26 -12 10 -22 -25 -17
-35 6 -37 5 -24 -11 8 -9 20 -15 27 -12 21 8 35 -20 32 -66 l-3 -43 -41 3
c-30 3 -43 -1 -47 -12 -4 -9 -14 -16 -22 -16 -9 0 -14 -4 -11 -9 3 -5 -14 -14
-38 -20 -25 -6 -51 -18 -60 -26 -16 -17 -55 -20 -57 -5 -1 6 -2 15 -3 22 0 6
-7 13 -15 16 -9 3 -11 0 -6 -9 6 -11 5 -11 -5 -2 -10 9 -18 8 -35 -3 -16 -10
-25 -12 -30 -5 -10 17 -28 13 -21 -4 3 -8 1 -15 -4 -15 -6 0 -10 7 -10 16 0
11 -5 14 -17 9 -13 -4 -15 -3 -7 5 6 6 25 12 42 13 18 1 32 5 32 9 0 3 8 8 18
11 9 2 -13 4 -50 3 -36 0 -64 -4 -61 -9 2 -4 10 -4 16 -1 7 4 9 3 4 -1 -4 -5
-18 -10 -30 -12 -12 -2 -24 -8 -25 -13 -2 -6 -8 -8 -13 -4 -5 3 -9 -5 -8 -18
0 -13 3 -17 6 -11 3 10 8 9 20 -2 8 -8 20 -15 26 -15 8 0 9 3 1 8 -19 13 -25
42 -8 42 8 0 12 -5 9 -10 -3 -6 1 -13 9 -16 9 -3 13 -10 10 -15 -3 -5 11 -9
30 -9 20 0 36 5 36 10 0 6 19 10 43 10 54 0 32 -16 -36 -25 -46 -7 -47 -8 -26
-19 27 -13 99 -9 78 5 -9 6 -1 9 24 9 27 0 37 -4 37 -16 0 -14 -3 -14 -15 -4
-8 7 -15 8 -15 2 0 -5 -35 -13 -77 -18 -43 -4 -68 -10 -55 -12 25 -4 31 -22 7
-22 -8 0 -15 -7 -15 -15 0 -11 11 -15 43 -14 l42 2 -40 7 -40 7 35 2 c29 2 32
4 15 11 -14 6 -4 9 38 9 32 1 57 -3 57 -9 0 -5 -13 -10 -30 -10 -16 0 -30 -4
-30 -8 0 -11 58 -3 66 9 9 14 31 10 31 -6 0 -9 -15 -16 -46 -21 -25 -3 -59
-10 -76 -15 -24 -7 -20 -8 21 -5 61 6 68 1 46 -25 -11 -12 -29 -19 -54 -19
-21 0 -38 -4 -38 -9 0 -8 130 -5 138 4 3 3 -6 9 -19 14 l-24 9 28 7 c15 4 27
12 27 19 0 12 35 46 48 46 4 0 20 10 35 22 l27 22 -22 13 c-25 14 -7 18 20 5
17 -9 67 10 56 20 -3 3 9 10 25 16 l31 11 1 -155 c1 -84 2 -160 3 -166 4 -24
-15 -49 -50 -65 -19 -9 -34 -20 -34 -25 0 -4 -6 -8 -12 -8 -7 0 -29 -16 -48
-35 -19 -19 -37 -35 -41 -35 -4 0 -23 -13 -41 -30 -22 -20 -44 -30 -68 -31
l-35 -2 35 -7 35 -7 -35 -3 c-29 -2 -31 -4 -10 -7 39 -7 49 -23 14 -23 l-29 0
28 -18 c26 -18 28 -36 3 -26 -7 3 -13 -2 -13 -11 0 -8 6 -15 13 -15 7 0 15 -4
18 -9 4 -5 -4 -7 -16 -5 l-23 5 23 -11 c19 -8 28 -5 58 23 42 38 201 147 214
147 6 0 11 -7 11 -15 1 -8 2 -18 4 -22 13 -49 15 -86 7 -117 -6 -20 -7 -36 -3
-36 16 0 10 -76 -10 -124 -20 -51 -21 -53 -3 -91 18 -41 20 -274 24 -2978 l0
-197 368 2 367 3 -3 1219 -3 1219 38 -6 c44 -8 65 -27 87 -87 21 -52 93 -156
148 -213 l39 -40 1 -136 c5 -477 -2 -1342 -11 -1436 -6 -60 -13 -203 -17 -317
l-7 -208 432 0 431 0 0 2545 0 2545 -394 0 c-429 0 -406 3 -406 -55 0 -31 -26
-75 -58 -99 l-25 -19 -26 30 c-14 16 -48 55 -74 86 l-48 57 -632 -1 c-348 -1
-623 -4 -612 -7z m-20 -132 c3 -5 2 -10 -4 -10 -5 0 -13 5 -16 10 -3 6 -2 10
4 10 5 0 13 -4 16 -10z m1195 -362 c58 -105 147 -245 173 -273 18 -18 41 -45
52 -61 11 -15 29 -36 39 -45 21 -20 24 -65 29 -421 3 -173 3 -175 -38 -158
-17 7 -17 9 -2 9 28 1 19 19 -14 26 -32 7 -89 59 -89 81 0 7 5 16 11 20 14 8
100 -36 93 -47 -3 -5 0 -9 5 -9 22 0 10 49 -19 80 -17 18 -33 30 -37 27 -3 -4
-15 -2 -26 4 -15 9 -18 8 -12 -2 6 -9 2 -11 -13 -7 -12 4 -22 2 -22 -3 0 -18
-29 -8 -48 16 -22 28 -32 31 -50 13 -22 -22 -49 -19 -61 8 -6 14 -8 30 -5 36
4 6 6 36 5 67 -9 274 -8 305 12 329 11 12 28 22 36 22 10 0 8 5 -8 13 -38 20
-55 88 -66 261 -2 38 -2 73 1 78 6 10 27 -15 54 -64z m-1150 52 c0 -5 -2 -10
-4 -10 -3 0 -8 5 -11 10 -3 6 -1 10 4 10 6 0 11 -4 11 -10z m193 -567 c-7 -2
-19 -2 -25 0 -7 3 -2 5 12 5 14 0 19 -2 13 -5z m-10 -20 c-7 -2 -19 -2 -25 0
-7 3 -2 5 12 5 14 0 19 -2 13 -5z m-105 -30 c-10 -2 -28 -2 -40 0 -13 2 -5 4
17 4 22 1 32 -1 23 -4z m65 0 c-7 -2 -21 -2 -30 0 -10 3 -4 5 12 5 17 0 24 -2
18 -5z m1002 -312 c-3 -5 3 -12 12 -14 14 -4 13 -5 -4 -6 -14 -1 -23 5 -23 14
0 8 5 15 11 15 5 0 8 -4 4 -9z m12 -67 c-3 -3 -12 -4 -19 -1 -8 3 -5 6 6 6 11
1 17 -2 13 -5z m26 -21 c-58 -6 -54 -23 5 -24 26 0 56 -4 67 -9 14 -6 -3 -9
-52 -7 -68 2 -73 3 -73 25 0 20 4 22 48 20 l47 -1 -42 -4z m257 -23 c0 -5 -5
-10 -11 -10 -5 0 -7 5 -4 10 3 6 8 10 11 10 2 0 4 -4 4 -10z m0 -40 c0 -5 -5
-10 -11 -10 -5 0 -7 5 -4 10 3 6 8 10 11 10 2 0 4 -4 4 -10z m0 -36 c0 -12 -5
-11 -25 2 -14 9 -25 17 -25 19 0 1 11 0 25 -3 14 -2 25 -11 25 -18z m-284 0
c-3 -8 3 -18 12 -23 14 -9 13 -10 -10 -11 -23 0 -28 4 -28 23 0 15 6 24 15 24
9 0 14 -6 11 -13z m17 -101 c-7 -2 -21 -2 -30 0 -10 3 -4 5 12 5 17 0 24 -2
18 -5z m267 -13 c0 -5 -4 -10 -9 -10 -6 0 -13 5 -16 10 -3 6 1 10 9 10 9 0 16
-4 16 -10z m-267 -7 c-7 -2 -21 -2 -30 0 -10 3 -4 5 12 5 17 0 24 -2 18 -5z
m-13 -17 c0 -2 -7 -6 -15 -10 -8 -3 -15 -1 -15 4 0 6 7 10 15 10 8 0 15 -2 15
-4z m41 -21 c-1 -5 -15 -14 -33 -18 -24 -7 -28 -11 -17 -18 10 -6 11 -9 1 -9
-7 0 -10 -4 -7 -10 3 -5 1 -10 -4 -10 -6 0 -11 14 -11 30 0 23 4 30 20 30 11
0 20 5 20 11 0 6 7 9 16 7 8 -2 15 -7 15 -13z m234 5 c3 -6 -4 -10 -17 -10
-18 0 -20 2 -8 10 19 12 18 12 25 0z m2 -50 c-2 -33 -17 -42 -17 -10 0 10 -8
24 -17 29 -16 9 -14 10 9 11 24 0 27 -3 25 -30z m-164 3 c-7 -2 -19 -2 -25 0
-7 3 -2 5 12 5 14 0 19 -2 13 -5z m77 -39 c0 -2 -16 -4 -36 -4 -19 0 -33 4
-30 8 5 8 66 4 66 -4z m-175 -16 c29 -3 29 -4 -7 -9 -33 -4 -38 -2 -38 16 0
12 3 16 8 8 4 -6 21 -13 37 -15z m262 -44 c-3 -3 -12 -4 -19 -1 -8 3 -5 6 6 6
11 1 17 -2 13 -5z m-287 -28 c0 -3 -4 -8 -10 -11 -5 -3 -10 -1 -10 4 0 6 5 11
10 11 6 0 10 -2 10 -4z m287 -42 c8 -39 9 -234 1 -234 -4 0 -8 19 -8 43 0 35
-4 45 -27 59 l-28 17 28 1 c27 0 41 30 15 30 -9 0 -10 2 -2 8 10 6 11 31 6 80
-1 7 -7 10 -14 6 -7 -4 -8 -3 -4 5 11 17 28 9 33 -15z m-282 5 c-17 -8 -16 -9
7 -6 15 2 33 0 40 -4 8 -6 -2 -9 -27 -10 -22 0 -34 -3 -26 -6 11 -5 11 -7 0
-14 -12 -8 -11 -11 1 -19 13 -8 12 -10 -2 -10 -14 0 -18 9 -18 40 0 35 3 40
23 39 21 0 21 -1 2 -10z m80 -39 c-26 -11 -45 -12 -45 -2 0 4 15 8 33 9 26 2
28 0 12 -7z m-38 -26 c-3 -3 -12 -4 -19 -1 -8 3 -5 6 6 6 11 1 17 -2 13 -5z
m-17 -18 c0 -2 -11 -6 -25 -8 -14 -3 -25 -1 -25 3 0 5 11 9 25 9 14 0 25 -2
25 -4z m208 -3 c-10 -2 -28 -2 -40 0 -13 2 -5 4 17 4 22 1 32 -1 23 -4z m-242
-69 c-5 -18 -3 -22 9 -18 8 4 15 1 15 -5 0 -6 -9 -11 -20 -11 -16 0 -20 7 -20
36 0 23 4 33 11 28 6 -3 8 -17 5 -30z m57 19 c-7 -2 -21 -2 -30 0 -10 3 -4 5
12 5 17 0 24 -2 18 -5z m64 -9 c-3 -3 -12 -4 -19 -1 -8 3 -5 6 6 6 11 1 17 -2
13 -5z m141 -21 c-10 -2 -26 -2 -35 0 -10 3 -2 5 17 5 19 0 27 -2 18 -5z
m-199 -27 c-2 -2 -15 -7 -29 -10 l-25 -7 25 15 c21 12 42 14 29 2z m67 1 c4
-4 -8 -7 -27 -7 -23 0 -30 3 -20 9 15 10 37 9 47 -2z m137 -4 c-7 -2 -21 -2
-30 0 -10 3 -4 5 12 5 17 0 24 -2 18 -5z m-223 -33 c-31 -6 -33 -8 -15 -16 22
-10 32 -33 12 -30 -37 7 -57 19 -57 37 0 16 7 19 48 18 45 -2 46 -2 12 -9z
m167 -12 c-3 -8 -6 -5 -6 6 -1 11 2 17 5 13 3 -3 4 -12 1 -19z m47 -4 c25 -10
19 -22 -9 -16 -14 2 -25 8 -25 13 0 10 12 11 34 3z m38 -38 c3 -14 1 -31 -3
-38 -6 -8 -9 1 -9 25 0 42 6 48 12 13z m-165 8 c-3 -3 -12 -4 -19 -1 -8 3 -5
6 6 6 11 1 17 -2 13 -5z m132 -21 c2 -2 -3 -3 -11 -3 -9 0 -19 7 -22 16 -6 15
-4 15 11 3 10 -7 20 -15 22 -16z m-159 -5 c0 -5 -3 -8 -7 -9 -5 0 -17 -3 -28
-5 -11 -3 -33 -5 -48 -5 -17 0 -27 -5 -24 -12 5 -13 20 -14 55 -3 19 6 22 4
22 -18 0 -26 1 -26 74 -26 53 0 77 -4 86 -15 7 -8 19 -15 26 -15 8 0 14 -2 14
-4 0 -2 3 -11 6 -20 10 -25 -15 -19 -39 10 -18 21 -34 27 -86 31 -48 5 -65 3
-72 -8 -4 -8 -13 -15 -19 -15 -48 -6 -48 -8 5 -14 l60 -7 -60 -1 c-43 -2 -56
-5 -45 -12 12 -8 11 -10 -7 -10 -13 0 -23 -4 -23 -10 0 -5 11 -10 25 -10 14 0
24 -3 24 -7 -4 -25 4 -33 31 -33 41 0 39 27 -2 46 l-33 15 40 -5 c22 -2 56 -9
75 -14 32 -9 33 -10 8 -11 -27 -1 -58 -24 -58 -43 0 -21 -46 -58 -72 -58 -16
0 -28 5 -28 10 0 6 -10 10 -22 10 -17 0 -19 3 -10 9 8 4 13 17 12 27 -1 11 -2
69 -1 130 l1 112 60 -2 c33 0 60 -4 60 -8z m165 -28 c-3 -5 2 -10 12 -10 14 0
18 -9 20 -35 2 -45 -14 -45 -33 0 -17 41 -18 55 -3 55 5 0 7 -4 4 -10z m-107
-127 c-10 -2 -26 -2 -35 0 -10 3 -2 5 17 5 19 0 27 -2 18 -5z m113 -19 c15
-19 14 -233 -1 -248 -25 -25 -52 57 -44 133 6 52 4 60 -17 79 -12 12 -18 22
-12 22 7 0 18 -7 27 -15 20 -20 25 -19 19 5 -3 12 0 21 8 21 8 1 -4 5 -26 9
l-40 7 36 2 c23 0 42 -5 50 -15z"/>
<path d="M13395 4340 c3 -5 8 -10 11 -10 2 0 4 5 4 10 0 6 -5 10 -11 10 -5 0
-7 -4 -4 -10z"/>
<path d="M13420 4289 c0 -5 5 -7 10 -4 6 3 10 8 10 11 0 2 -4 4 -10 4 -5 0
-10 -5 -10 -11z"/>
<path d="M13445 4240 c3 -5 14 -10 23 -10 15 0 15 -2 2 -10 -12 -7 -12 -10 -1
-10 7 0 11 -6 7 -15 -4 -11 2 -15 24 -15 17 0 30 5 30 10 0 6 -10 10 -22 10
-17 0 -19 3 -10 9 11 6 10 11 -3 25 -18 17 -60 23 -50 6z"/>
<path d="M13430 4170 c0 -18 6 -20 53 -19 49 1 50 1 17 9 -19 5 -36 13 -38 19
-6 19 -32 12 -32 -9z"/>
<path d="M13453 4133 c9 -2 25 -2 35 0 9 3 1 5 -18 5 -19 0 -27 -2 -17 -5z"/>
<path d="M13470 4111 c0 -8 -8 -10 -20 -6 -13 4 -20 2 -20 -6 0 -7 3 -9 7 -6
3 4 12 2 19 -4 17 -14 74 -1 74 17 0 8 -9 14 -21 14 -13 0 -18 -4 -13 -12 5
-9 2 -9 -9 1 -12 10 -17 10 -17 2z"/>
<path d="M13460 4050 c0 -5 7 -7 15 -4 8 4 15 8 15 10 0 2 -7 4 -15 4 -8 0
-15 -4 -15 -10z"/>
<path d="M13508 4053 c7 -3 16 -2 19 1 4 3 -2 6 -13 5 -11 0 -14 -3 -6 -6z"/>
<path d="M13312 2786 c-32 -16 -21 -32 19 -28 41 5 41 5 33 26 -7 18 -19 19
-52 2z"/>
<path d="M13346 2615 c-3 -9 0 -15 9 -15 8 0 15 5 15 11 0 5 5 7 12 3 7 -4 8
-3 4 4 -10 17 -33 15 -40 -3z"/>
<path d="M11415 5070 c-3 -6 1 -7 9 -4 18 7 21 14 7 14 -6 0 -13 -4 -16 -10z"/>
<path d="M11883 5068 c-22 -37 -14 -48 35 -47 27 0 40 3 30 7 -13 5 -15 11 -8
22 5 8 10 18 10 23 0 12 -58 8 -67 -5z"/>
<path d="M11758 5053 c12 -2 32 -2 45 0 12 2 2 4 -23 4 -25 0 -35 -2 -22 -4z"/>
<path d="M11550 5040 c0 -5 7 -7 15 -4 8 4 15 8 15 10 0 2 -7 4 -15 4 -8 0
-15 -4 -15 -10z"/>
<path d="M11687 5028 c2 -5 17 -8 33 -8 16 0 31 -4 34 -8 3 -5 -18 -7 -47 -6
l-52 3 60 -13 c33 -7 51 -14 40 -15 -19 -2 -19 -2 -1 -12 13 -8 25 -8 45 2 24
11 24 13 6 17 -26 5 -43 22 -19 18 20 -4 44 10 44 25 0 5 -33 8 -74 6 -41 -1
-72 -5 -69 -9z"/>
<path d="M11980 5030 c0 -5 7 -10 16 -10 8 0 12 5 9 10 -3 6 -10 10 -16 10 -5
0 -9 -4 -9 -10z"/>
<path d="M11458 5023 c12 -2 30 -2 40 0 9 3 -1 5 -23 4 -22 0 -30 -2 -17 -4z"/>
<path d="M11618 5013 c7 -3 16 -2 19 1 4 3 -2 6 -13 5 -11 0 -14 -3 -6 -6z"/>
<path d="M11525 5000 c4 -6 11 -8 16 -5 14 9 11 15 -7 15 -8 0 -12 -5 -9 -10z"/>
<path d="M11568 5003 c7 -3 16 -2 19 1 4 3 -2 6 -13 5 -11 0 -14 -3 -6 -6z"/>
<path d="M11888 5003 c12 -2 30 -2 40 0 9 3 -1 5 -23 4 -22 0 -30 -2 -17 -4z"/>
<path d="M11475 4980 c3 -5 16 -10 28 -9 21 0 21 1 2 9 -28 12 -37 12 -30 0z"/>
<path d="M11563 4983 c9 -2 23 -2 30 0 6 3 -1 5 -18 5 -16 0 -22 -2 -12 -5z"/>
<path d="M11867 4983 c-18 -18 -3 -29 41 -31 34 -2 43 0 32 8 -8 5 -28 10 -45
11 -26 0 -27 2 -10 9 15 6 16 9 4 9 -9 1 -19 -2 -22 -6z"/>
<path d="M7377 4949 c4 -13 8 -18 11 -10 2 7 -1 18 -6 23 -8 8 -9 4 -5 -13z"/>
<path d="M11595 4960 l-30 -8 30 0 c17 0 39 3 50 8 l20 9 -20 -1 c-11 0 -33
-4 -50 -8z"/>
<path d="M11510 4950 c0 -5 4 -10 9 -10 5 0 16 -3 25 -6 10 -4 16 -1 16 7 0 7
-3 9 -6 6 -4 -3 -15 -2 -25 4 -13 6 -19 6 -19 -1z"/>
<path d="M11666 4948 c-11 -6 -36 -11 -55 -10 -29 1 -32 -1 -19 -9 10 -6 34
-7 55 -3 21 4 47 8 57 8 11 1 21 7 23 14 6 15 -35 16 -61 0z"/>
<path d="M11763 4943 c9 -2 25 -2 35 0 9 3 1 5 -18 5 -19 0 -27 -2 -17 -5z"/>
<path d="M11905 4930 c-3 -5 2 -10 12 -11 16 0 16 -1 -2 -9 -20 -9 -17 -10 23
-10 4 0 7 6 7 13 0 6 9 11 20 9 17 -2 17 -1 5 7 -19 14 -57 14 -65 1z"/>
<path d="M11745 4920 c-15 -7 -9 -9 23 -6 23 2 45 6 49 10 10 9 -49 6 -72 -4z"/>
<path d="M9560 4916 c0 -2 9 -25 21 -51 18 -41 21 -62 17 -144 -4 -87 -8 -103
-41 -166 -38 -72 -91 -140 -163 -210 l-41 -40 69 0 69 0 40 -45 c56 -63 53
-58 78 -139 16 -52 19 -77 12 -84 -8 -8 -11 -5 -11 10 0 70 -70 179 -140 216
-47 25 -141 42 -156 28 -5 -5 -27 -14 -49 -21 -22 -6 -59 -20 -83 -31 l-42
-19 6 -83 c4 -45 11 -89 15 -98 6 -11 4 -21 -5 -28 -11 -9 -14 6 -19 78 -4 51
-14 105 -24 125 -17 36 -33 47 -33 24 -1 -25 -69 -150 -95 -173 -50 -46 -120
-291 -96 -339 9 -20 10 -20 10 4 1 19 6 26 21 26 22 0 26 -16 8 -34 -15 -15
-3 -16 23 -2 11 6 19 7 19 1 0 -5 -10 -11 -22 -15 -13 -3 -36 -16 -51 -28
l-28 -23 20 -45 c11 -25 21 -53 21 -62 0 -20 15 -24 25 -8 3 6 14 10 23 9 12
0 13 -2 3 -6 -33 -13 -66 -63 -42 -63 5 0 14 -19 20 -42 18 -75 39 -146 49
-165 5 -10 13 -38 17 -63 4 -25 12 -54 17 -64 11 -19 32 -102 47 -184 4 -23
10 -45 13 -48 7 -6 68 80 68 95 0 6 3 11 8 11 4 0 19 21 34 48 15 26 38 59 52
74 21 22 30 25 59 19 28 -7 87 -38 87 -46 0 -1 -18 -21 -40 -44 -22 -22 -40
-47 -40 -55 0 -15 30 -26 72 -26 27 0 27 -1 11 -20 -10 -11 -22 -20 -28 -20
-6 0 -41 -30 -77 -67 -36 -38 -93 -93 -128 -123 -34 -30 -68 -61 -76 -68 -8
-7 -14 -26 -14 -41 0 -16 -7 -34 -15 -41 -8 -7 -15 -16 -15 -21 0 -5 7 -9 15
-9 8 0 15 3 15 8 0 4 12 13 28 19 15 7 47 31 72 52 67 60 61 41 -9 -26 -34
-33 -61 -65 -61 -72 0 -8 5 -7 16 4 52 52 92 54 90 5 -1 -17 -5 -30 -9 -30 -5
0 -5 -5 -2 -11 4 -6 -1 -17 -11 -24 -18 -13 -18 -14 3 -9 15 4 23 0 27 -13 3
-10 4 -6 2 9 -2 20 3 29 21 37 22 10 23 9 13 -10 -11 -19 -10 -20 9 -9 26 13
26 13 2 -32 -10 -21 -22 -34 -25 -30 -4 3 -4 0 -1 -9 3 -8 -3 -26 -15 -39 -11
-13 -20 -28 -20 -33 0 -16 39 23 46 47 4 11 9 23 13 26 20 16 39 67 30 82 -6
11 -4 18 6 22 19 7 19 26 0 26 -8 0 -15 4 -15 9 0 14 67 61 75 53 5 -4 5 -2 2
4 -4 6 2 19 13 29 11 10 20 24 20 32 0 7 4 13 8 13 5 0 23 19 40 43 64 87 166
194 195 203 9 3 17 9 17 13 0 9 70 35 76 28 3 -2 -7 -7 -21 -11 -24 -6 -36
-26 -15 -26 6 0 10 5 10 10 0 6 6 10 13 10 6 0 35 11 62 25 28 13 56 25 63 25
6 0 12 5 12 10 0 6 5 10 10 10 6 0 10 -6 10 -14 0 -24 29 -46 63 -47 26 -1 28
-3 8 -6 -17 -3 -20 -7 -12 -13 7 -4 25 -4 40 1 53 16 127 29 174 31 26 1 47 5
47 9 0 6 48 32 62 33 3 1 10 4 14 9 4 4 13 7 21 7 10 0 6 -11 -11 -37 -26 -38
-27 -55 -2 -34 8 7 27 11 43 9 l28 -4 -25 -11 -25 -12 28 0 c15 -1 27 3 27 7
0 12 49 7 63 -8 9 -10 9 -14 -1 -17 -10 -4 -7 -9 8 -20 26 -18 38 -10 19 13
-12 15 -12 17 1 12 8 -2 17 -13 19 -24 4 -20 26 -40 53 -47 13 -4 10 4 -12 31
-43 52 -27 53 26 1 28 -27 42 -36 38 -24 -14 38 -129 139 -195 171 -109 53
-137 59 -284 59 -143 -1 -194 -11 -302 -61 -17 -7 -36 -14 -42 -14 -6 0 -11
-4 -11 -9 0 -5 -12 -12 -27 -16 -14 -3 -38 -15 -51 -26 -14 -10 -31 -19 -39
-19 -7 0 -26 -7 -41 -16 -25 -15 -25 -14 3 7 16 13 36 32 44 41 9 10 19 18 23
18 4 0 24 16 44 35 19 19 39 35 43 35 4 0 22 16 41 35 19 19 41 35 48 35 6 0
12 4 12 8 0 11 100 62 121 62 8 0 19 4 24 9 6 6 45 14 88 20 43 5 80 11 82 13
4 4 7 70 6 111 -1 19 -6 27 -20 27 -23 0 -51 40 -58 84 -4 26 -12 36 -39 46
-19 8 -34 15 -34 17 0 2 7 20 15 40 l15 36 -66 -6 c-37 -3 -61 -2 -55 2 9 6 9
19 2 52 -5 24 -15 97 -22 161 -9 89 -16 118 -28 123 -9 3 -17 1 -19 -4 -2 -6
-18 -11 -35 -10 -30 1 -28 2 17 17 l48 16 -5 41 c-3 22 -17 60 -31 85 -14 25
-30 54 -35 65 -11 23 -69 80 -91 88 -10 3 -7 6 8 6 25 1 122 93 122 116 0 7 3
15 8 17 12 5 49 81 57 118 4 19 12 40 17 47 18 22 -14 224 -38 242 -5 3 -17
20 -26 36 -11 19 -25 30 -40 31 -13 1 -34 4 -48 8 -23 6 -23 5 7 -22 18 -16
36 -42 39 -60 4 -18 11 -35 15 -38 5 -3 8 -40 7 -82 l-2 -77 -3 68 c-5 80 -24
91 -22 12 1 -30 -1 -59 -5 -63 -4 -4 -6 32 -4 80 2 47 0 84 -4 81 -5 -2 -8 1
-8 6 0 16 -31 44 -63 58 l-27 13 -1 -53 c0 -47 -2 -49 -11 -24 -5 15 -14 27
-19 27 -5 0 -9 6 -9 13 -1 18 -68 87 -85 87 -8 0 -15 -2 -15 -4z m237 -318
c-3 -8 -6 -5 -6 6 -1 11 2 17 5 13 3 -3 4 -12 1 -19z m7 -62 c-3 -15 -8 -25
-11 -23 -2 3 -1 17 3 31 3 15 8 25 11 23 2 -3 1 -17 -3 -31z m-33 -54 c-6 -10
-9 0 -9 29 0 40 1 41 9 15 4 -16 4 -36 0 -44z m-26 -31 c-11 -19 -43 -32 -50
-21 -4 6 -3 10 2 9 19 -3 34 2 29 10 -4 5 0 11 6 14 17 6 22 1 13 -12z m-81
-66 c-4 -8 -14 -15 -23 -15 -9 0 -27 -7 -39 -16 -12 -8 -28 -14 -34 -12 -8 3
74 50 99 57 1 1 0 -6 -3 -14z m-639 -365 c-3 -6 1 -13 9 -16 22 -8 20 -19 -4
-21 -11 -1 -20 4 -20 13 0 8 -5 14 -11 14 -5 0 -7 5 -4 10 3 6 13 10 21 10 8
0 12 -5 9 -10z m122 -56 c-3 -3 -12 -4 -19 -1 -8 3 -5 6 6 6 11 1 17 -2 13 -5z
m-105 -36 c-8 -8 -9 -4 -5 13 4 13 8 18 11 10 2 -7 -1 -18 -6 -23z m721 25
c-7 -2 -19 -2 -25 0 -7 3 -2 5 12 5 14 0 19 -2 13 -5z m-593 -12 c0 -12 -20
-25 -27 -18 -7 7 6 27 18 27 5 0 9 -4 9 -9z m540 0 c-8 -5 -31 -12 -50 -15
l-35 -6 30 14 c33 16 82 22 55 7z m-595 -11 c3 -5 2 -10 -4 -10 -5 0 -13 5
-16 10 -3 6 -2 10 4 10 5 0 13 -4 16 -10z m411 1 c-8 -12 -46 -21 -46 -11 0 5
10 11 23 13 12 2 23 5 25 6 2 0 1 -3 -2 -8z m-349 -133 c-3 -8 -6 -5 -6 6 -1
11 2 17 5 13 3 -3 4 -12 1 -19z m6 -38 c3 -11 1 -18 -4 -14 -5 3 -9 12 -9 20
0 20 7 17 13 -6z m-122 -80 c15 0 10 -27 -5 -33 -9 -4 -21 5 -31 20 -16 24
-16 25 -1 20 11 -4 16 -1 17 11 1 16 2 16 6 0 2 -10 9 -18 14 -18z m-121 -50
c0 -13 -7 -20 -20 -20 -22 0 -28 25 -7 33 22 10 27 7 27 -13z m120 -14 c0 -2
-7 -7 -16 -10 -8 -3 -12 -2 -9 4 6 10 25 14 25 6z m765 -11 c-21 -8 -41 -12
-44 -10 -6 6 40 24 64 24 11 0 2 -6 -20 -14z m-815 -20 c0 -2 -10 -9 -22 -15
-22 -11 -22 -10 -4 4 21 17 26 19 26 11z m760 1 c0 -6 -106 -56 -117 -56 -7 1
106 59 115 60 1 0 2 -2 2 -4z m-547 -166 c3 -11 1 -20 -4 -20 -5 0 -9 9 -9 20
0 11 2 20 4 20 2 0 6 -9 9 -20z m-133 -156 c0 -8 -4 -12 -10 -9 -5 3 -10 10
-10 16 0 5 5 9 10 9 6 0 10 -7 10 -16z m820 -184 c0 -11 -48 -25 -57 -16 -4 3
3 6 15 6 12 0 22 5 22 10 0 6 5 10 10 10 6 0 10 -4 10 -10z m66 -22 c4 -6 3
-8 -3 -5 -6 4 -14 0 -17 -9 -3 -8 -10 -12 -16 -9 -15 10 -12 23 8 28 9 3 18 5
19 6 1 0 5 -4 9 -11z m-148 -5 c-10 -2 -18 -9 -18 -14 0 -5 -5 -9 -11 -9 -8 0
-8 5 1 15 7 8 20 14 29 14 13 -1 13 -2 -1 -6z m-51 -29 c-3 -3 -12 -4 -19 -1
-8 3 -5 6 6 6 11 1 17 -2 13 -5z m683 -44 c0 -5 -2 -10 -4 -10 -3 0 -8 5 -11
10 -3 6 -1 10 4 10 6 0 11 -4 11 -10z m-1010 -94 c0 -2 -7 -7 -16 -10 -8 -3
-12 -2 -9 4 6 10 25 14 25 6z"/>
<path d="M11618 4913 c-53 -6 -47 -23 7 -23 44 0 62 -14 28 -23 -10 -2 -3 -3
15 -1 37 3 62 -4 62 -17 0 -5 -19 -9 -42 -9 -23 0 -39 -2 -37 -4 6 -6 57 -14
97 -15 21 -1 32 -6 32 -16 0 -8 9 -15 20 -15 25 0 26 17 3 23 -17 4 -17 5 0 6
9 0 17 5 17 10 0 4 -11 7 -24 6 -14 -2 -33 3 -43 11 -17 13 -17 13 2 15 17 1
16 2 -5 9 l-25 8 25 1 c14 1 32 6 40 11 18 12 12 13 -69 10 -36 -1 -51 2 -46
9 3 6 0 10 -7 9 -7 -1 -30 -3 -50 -5z m89 -29 c-3 -3 -12 -4 -19 -1 -8 3 -5 6
6 6 11 1 17 -2 13 -5z"/>
<path d="M11550 4899 c0 -5 5 -7 10 -4 6 3 10 8 10 11 0 2 -4 4 -10 4 -5 0
-10 -5 -10 -11z"/>
<path d="M11920 4878 c0 -4 14 -8 30 -8 17 0 30 2 30 4 0 2 -13 6 -30 8 -16 3
-30 1 -30 -4z"/>
<path d="M11870 4830 c0 -5 14 -10 31 -10 16 0 28 -4 25 -9 -3 -5 1 -12 10
-15 27 -10 44 -7 44 9 0 14 -12 19 -32 16 -5 0 -8 4 -8 9 0 6 -16 10 -35 10
-19 0 -35 -4 -35 -10z"/>
<path d="M11653 4803 c9 -2 25 -2 35 0 9 3 1 5 -18 5 -19 0 -27 -2 -17 -5z"/>
<path d="M11710 4780 c0 -5 5 -10 10 -10 6 0 10 5 10 10 0 6 -4 10 -10 10 -5
0 -10 -4 -10 -10z"/>
<path d="M11770 4770 l-35 -8 42 1 c23 0 40 4 37 9 -3 4 -6 7 -7 7 -1 -1 -18
-5 -37 -9z"/>
<path d="M11950 4753 c0 -8 -11 -13 -27 -13 -16 0 -35 -5 -43 -11 -11 -8 -5
-9 23 -4 23 4 37 2 37 -5 0 -5 9 -10 20 -10 15 0 20 7 20 28 0 19 -5 29 -15
29 -8 0 -15 -6 -15 -14z"/>
<path d="M12008 4753 c6 -2 18 -2 25 0 6 3 1 5 -13 5 -14 0 -19 -2 -12 -5z"/>
<path d="M10640 4735 c-7 -8 -9 -15 -6 -15 4 0 14 7 22 15 9 8 11 15 6 15 -5
0 -15 -7 -22 -15z"/>
<path d="M11760 4741 c0 -6 -11 -11 -25 -11 -43 0 -27 -15 18 -16 23 -1 33 1
23 3 -14 4 -15 7 -6 13 8 5 9 9 1 14 -6 4 -11 2 -11 -3z"/>
<path d="M11875 4700 c4 -6 12 -7 18 -4 8 5 8 3 0 -7 -18 -19 -16 -59 2 -59 8
0 16 6 16 13 1 6 2 19 3 27 1 8 -3 21 -8 28 -10 14 -40 17 -31 2z"/>
<path d="M11775 4690 c-3 -5 -1 -10 4 -10 6 0 11 5 11 10 0 6 -2 10 -4 10 -3
0 -8 -4 -11 -10z"/>
<path d="M11958 4693 c6 -2 18 -2 25 0 6 3 1 5 -13 5 -14 0 -19 -2 -12 -5z"/>
<path d="M11943 4666 c0 -7 9 -12 19 -12 10 0 18 3 18 7 0 4 -8 9 -18 11 -10
3 -19 0 -19 -6z"/>
<path d="M11765 4660 c-3 -5 1 -10 10 -10 9 0 13 5 10 10 -3 6 -8 10 -10 10
-2 0 -7 -4 -10 -10z"/>
<path d="M5064 4596 c4 -27 6 -119 6 -206 l0 -156 39 -22 c49 -28 51 -28 51 5
0 59 -62 343 -86 396 l-15 32 5 -49z"/>
<path d="M12040 4570 c-8 -5 -18 -6 -22 -4 -4 3 -8 0 -8 -5 0 -6 -7 -11 -15
-11 -8 0 -15 -5 -15 -12 0 -9 -3 -9 -12 0 -17 17 -24 15 -24 -8 0 -21 14 -24
53 -14 14 4 20 11 16 20 -4 12 1 14 23 9 23 -4 25 -3 9 4 -18 8 -17 9 10 12
21 3 25 6 14 11 -9 3 -22 2 -29 -2z"/>
<path d="M12099 4562 c11 -8 9 -11 -10 -15 -22 -4 -22 -4 4 -6 30 -1 34 19 6
27 -12 3 -12 2 0 -6z"/>
<path d="M12054 4523 c4 -5 11 -8 14 -9 4 0 18 -6 32 -13 l25 -11 -27 5 c-16
3 -28 1 -28 -5 0 -14 37 -12 63 3 14 9 33 11 52 7 28 -7 29 -8 5 -10 -14 -1
-29 -2 -33 -1 -5 1 -6 -2 -3 -7 2 -4 21 -9 40 -10 32 -2 36 0 36 23 0 22 -4
25 -37 25 -21 1 -62 3 -92 6 -30 2 -51 1 -47 -3z"/>
<path d="M9924 4512 c-6 -4 -15 -18 -19 -31 -9 -29 -74 -141 -92 -159 -27 -27
-36 -54 -22 -63 20 -12 27 -11 41 7 7 9 28 32 46 50 17 18 32 40 32 49 0 8 7
27 16 40 15 23 15 25 -2 26 -11 0 -14 3 -6 6 6 2 10 8 7 13 -3 5 0 21 5 36 12
30 10 36 -6 26z"/>
<path d="M11968 4502 c-16 -2 -28 -7 -28 -11 0 -9 57 -7 66 2 9 8 -9 13 -38 9z"/>
<path d="M12028 4493 c6 -2 18 -2 25 0 6 3 1 5 -13 5 -14 0 -19 -2 -12 -5z"/>
<path d="M7410 4470 c0 -5 -8 -6 -17 -3 -16 6 -16 5 -4 -10 18 -22 26 -21 28
3 1 11 0 20 -3 20 -2 0 -4 -4 -4 -10z"/>
<path d="M12068 4457 c26 -6 50 -6 63 -1 16 7 5 10 -43 10 l-63 1 43 -10z"/>
<path d="M11968 4453 c6 -2 18 -2 25 0 6 3 1 5 -13 5 -14 0 -19 -2 -12 -5z"/>
<path d="M12161 4449 c-53 -10 -64 -19 -28 -20 56 -3 71 -13 35 -25 l-23 -8
25 -7 c20 -6 16 -8 -20 -8 -76 -1 -82 -2 -77 -7 3 -3 13 -7 22 -8 9 -1 20 -7
23 -13 4 -5 27 -13 52 -16 l46 -6 2 64 c2 36 -1 65 -5 64 -4 -1 -28 -5 -52
-10z"/>
<path d="M7340 4439 c0 -5 5 -7 10 -4 6 3 10 8 10 11 0 2 -4 4 -10 4 -5 0 -10
-5 -10 -11z"/>
<path d="M12035 4440 c3 -6 -5 -14 -19 -20 -14 -5 -26 -12 -26 -14 0 -3 7 -2
17 1 12 5 14 3 8 -7 -7 -11 2 -12 43 -7 72 8 104 29 40 25 -33 -2 -48 1 -48 9
0 7 7 10 18 7 14 -5 15 -4 2 5 -19 14 -43 14 -35 1z"/>
<path d="M7370 4420 c-11 -7 -7 -10 18 -10 17 0 32 5 32 10 0 13 -30 13 -50 0z"/>
<path d="M12468 4398 c11 -14 10 -17 -10 -21 -20 -4 -20 -4 5 -6 31 -1 35 10
10 30 -16 13 -17 12 -5 -3z"/>
<path d="M7487 4380 c3 -11 9 -20 14 -20 5 0 8 -5 7 -11 -2 -6 3 -14 10 -16
11 -4 10 2 -2 25 -19 37 -36 50 -29 22z"/>
<path d="M11927 4386 c-4 -10 10 -13 61 -13 65 -1 66 0 17 6 -27 3 -55 10 -61
14 -7 4 -14 1 -17 -7z"/>
<path d="M7358 4383 c7 -3 16 -2 19 1 4 3 -2 6 -13 5 -11 0 -14 -3 -6 -6z"/>
<path d="M7397 4352 c-18 -4 -18 -4 0 -17 17 -13 17 -14 1 -20 -10 -4 -15 -11
-12 -16 3 -5 10 -7 15 -4 5 4 9 -1 9 -9 0 -11 -9 -14 -40 -11 -23 3 -45 7 -50
10 -6 4 -10 -3 -10 -15 0 -12 -4 -18 -10 -15 -15 9 -12 -11 4 -24 15 -13 32 1
21 18 -8 14 25 19 59 9 16 -4 31 -6 33 -4 2 2 3 26 1 53 -3 41 -6 48 -21 45z"/>
<path d="M7305 4340 c3 -5 10 -10 16 -10 5 0 9 5 9 10 0 6 -7 10 -16 10 -8 0
-12 -4 -9 -10z"/>
<path d="M11930 4346 c0 -9 30 -14 35 -6 4 6 -3 10 -14 10 -12 0 -21 -2 -21
-4z"/>
<path d="M12443 4339 c14 -8 22 -8 30 0 8 8 3 11 -18 11 -26 -1 -28 -2 -12
-11z"/>
<path d="M7308 4303 c6 -2 18 -2 25 0 6 3 1 5 -13 5 -14 0 -19 -2 -12 -5z"/>
<path d="M12044 4299 c-3 -5 -10 -7 -15 -4 -5 4 -9 1 -9 -6 0 -7 9 -9 28 -4
15 4 61 11 102 15 l75 7 -88 0 c-48 0 -90 -4 -93 -8z"/>
<path d="M7262 4265 c0 -16 2 -22 5 -12 2 9 2 23 0 30 -3 6 -5 -1 -5 -18z"/>
<path d="M11918 4283 c7 -3 16 -2 19 1 4 3 -2 6 -13 5 -11 0 -14 -3 -6 -6z"/>
<path d="M12188 4283 c6 -2 18 -2 25 0 6 3 1 5 -13 5 -14 0 -19 -2 -12 -5z"/>
<path d="M12168 4259 c-7 -4 -16 -5 -20 -3 -4 3 -8 -4 -8 -15 0 -16 6 -21 28
-21 21 0 24 -2 12 -10 -8 -5 -30 -10 -47 -10 -18 0 -33 -4 -33 -10 0 -6 27
-10 60 -10 60 0 60 0 60 29 0 25 -5 30 -27 34 l-28 4 28 2 c15 0 27 5 27 9 0
10 -37 10 -52 1z"/>
<path d="M7347 4237 c-3 -9 7 -14 34 -16 21 -1 39 2 39 7 0 15 -37 21 -51 8
-9 -8 -10 -8 -5 2 4 6 3 12 -2 12 -6 0 -12 -6 -15 -13z"/>
<path d="M12020 4240 c-13 -9 -13 -10 0 -9 8 0 24 4 35 9 l20 9 -20 0 c-11 0
-27 -4 -35 -9z"/>
<path d="M12088 4243 c6 -2 18 -2 25 0 6 3 1 5 -13 5 -14 0 -19 -2 -12 -5z"/>
<path d="M7385 4200 c29 -7 29 -8 4 -9 -33 -1 -34 -29 -1 -38 17 -4 20 -8 11
-14 -7 -4 -17 -5 -21 -3 -4 3 -8 0 -8 -5 0 -6 9 -16 19 -23 10 -6 17 -18 14
-25 -3 -7 0 -13 6 -13 7 0 11 25 11 70 l0 70 -32 -1 -33 -1 30 -8z"/>
<path d="M12008 4203 c12 -2 30 -2 40 0 9 3 -1 5 -23 4 -22 0 -30 -2 -17 -4z"/>
<path d="M11990 4180 c0 -5 6 -10 14 -10 8 0 18 5 21 10 3 6 -3 10 -14 10 -12
0 -21 -4 -21 -10z"/>
<path d="M7613 4145 c0 -22 2 -30 4 -17 2 12 2 30 0 40 -3 9 -5 -1 -4 -23z"/>
<path d="M11998 4153 c6 -2 18 -2 25 0 6 3 1 5 -13 5 -14 0 -19 -2 -12 -5z"/>
<path d="M7310 4140 c0 -5 5 -10 11 -10 5 0 7 5 4 10 -3 6 -8 10 -11 10 -2 0
-4 -4 -4 -10z"/>
<path d="M7262 4120 c0 -14 2 -19 5 -12 2 6 2 18 0 25 -3 6 -5 1 -5 -13z"/>
<path d="M11978 4123 c7 -3 16 -2 19 1 4 3 -2 6 -13 5 -11 0 -14 -3 -6 -6z"/>
<path d="M3423 4100 c-13 -5 -23 -12 -23 -16 0 -8 53 5 65 17 12 12 -12 11
-42 -1z"/>
<path d="M7451 3993 c0 -92 2 -105 14 -90 8 12 15 14 20 8 9 -16 25 -13 25 4
0 8 -8 15 -18 15 -10 0 -19 6 -19 13 0 6 -3 24 -6 40 -5 24 -3 27 21 28 24 2
24 2 5 6 -19 4 -23 11 -23 44 0 21 -4 39 -10 39 -6 0 -10 -43 -9 -107z"/>
<path d="M7608 4029 c-1 -28 0 -53 5 -56 4 -2 7 21 7 51 0 70 -7 73 -12 5z"/>
<path d="M7410 4045 c0 -9 -6 -12 -17 -8 -12 5 -15 2 -11 -9 4 -8 2 -21 -2
-28 -6 -9 -2 -19 8 -28 9 -7 11 -11 5 -7 -7 3 -13 2 -13 -4 0 -5 8 -12 18 -14
15 -4 15 -5 1 -6 -28 -2 -30 -27 -3 -29 23 -2 24 0 24 73 0 41 -2 75 -5 75 -3
0 -5 -7 -5 -15z"/>
<path d="M7490 4045 c0 -8 5 -15 10 -15 6 0 10 7 10 15 0 8 -4 15 -10 15 -5 0
-10 -7 -10 -15z"/>
<path d="M12083 4043 c9 -2 25 -2 35 0 9 3 1 5 -18 5 -19 0 -27 -2 -17 -5z"/>
<path d="M11090 3996 c0 -2 7 -7 16 -10 8 -3 12 -2 9 4 -6 10 -25 14 -25 6z"/>
<path d="M7480 3981 c0 -6 5 -13 10 -16 6 -3 10 1 10 9 0 9 -4 16 -10 16 -5 0
-10 -4 -10 -9z"/>
<path d="M7581 3974 c0 -11 3 -14 6 -6 3 7 2 16 -1 19 -3 4 -6 -2 -5 -13z"/>
<path d="M7611 3944 c0 -11 3 -14 6 -6 3 7 2 16 -1 19 -3 4 -6 -2 -5 -13z"/>
<path d="M12198 3923 c7 -3 16 -2 19 1 4 3 -2 6 -13 5 -11 0 -14 -3 -6 -6z"/>
<path d="M7379 3878 c-1 -13 -1 -29 1 -37 1 -10 -7 -12 -35 -7 -25 5 -35 4
-30 -3 3 -6 -1 -11 -9 -11 -19 0 -21 -16 -3 -23 7 -3 5 -6 -5 -6 -26 -1 -22
-21 5 -22 l22 0 -22 -9 c-13 -5 -23 -16 -23 -24 0 -8 10 -17 23 -19 l22 -4
-23 -2 c-13 0 -20 -6 -17 -11 4 -6 11 -8 16 -5 5 4 9 1 9 -4 0 -10 -21 -16
-42 -12 -5 0 -8 -6 -8 -14 0 -8 6 -15 13 -15 9 0 9 -2 0 -8 -6 -4 -12 -27 -13
-52 -3 -73 1 -176 7 -162 2 6 14 12 25 12 14 0 18 5 14 16 -4 10 -1 14 6 11 7
-2 14 -10 14 -18 1 -8 2 -20 3 -26 0 -7 6 -13 12 -13 5 0 7 5 4 10 -3 6 -1 10
4 10 6 0 11 -7 11 -15 0 -9 -9 -15 -25 -15 -16 0 -25 6 -25 15 0 8 -8 15 -17
15 -15 0 -16 -2 -3 -10 13 -9 13 -10 0 -11 -8 -1 -18 -1 -22 0 -5 0 -8 -6 -8
-14 0 -11 10 -13 52 -8 46 6 51 4 45 -11 -4 -10 -7 -19 -7 -21 0 -1 -20 0 -45
3 l-45 5 0 -318 0 -317 51 7 c40 6 50 4 47 -6 -3 -9 -19 -12 -51 -10 -29 1
-47 -2 -47 -8 0 -6 9 -11 21 -11 11 0 28 -8 37 -17 16 -16 16 -16 -3 -9 -50
20 -55 20 -54 -10 0 -16 3 -23 6 -16 2 6 9 10 14 6 14 -8 11 -24 -5 -24 -7 0
-16 -10 -20 -22 -3 -13 -6 -228 -7 -478 -1 -250 -4 -495 -8 -543 l-6 -89 -22
20 c-22 18 -33 60 -14 47 5 -3 13 0 16 6 5 7 -1 9 -16 7 -21 -3 -25 -10 -30
-56 -7 -51 -30 -92 -53 -92 -12 0 -13 -100 -2 -118 3 -5 18 -13 32 -16 40 -10
83 -47 109 -91 26 -45 50 -155 41 -191 -6 -23 -4 -23 36 -19 94 11 159 12 164
4 3 -5 22 -9 43 -9 l38 0 5 79 c3 59 10 88 28 117 33 54 89 103 127 110 34 6
46 23 32 45 -5 8 -9 30 -9 50 0 27 -6 41 -23 52 -19 12 -24 25 -26 68 -3 66
-5 69 -45 69 l-33 0 -6 137 c-4 75 -7 196 -7 270 0 109 -3 133 -14 133 -22 0
-30 -20 -9 -21 16 0 16 -1 -2 -9 -18 -8 -18 -9 -2 -9 10 -1 15 -6 12 -11 -4
-6 -11 -8 -16 -5 -5 4 -9 -1 -9 -9 0 -9 -4 -16 -10 -16 -5 0 -7 -7 -4 -15 9
-22 -49 -20 -67 2 -12 15 -12 16 4 10 9 -3 17 -2 17 4 0 5 -8 13 -17 16 -10 4
-23 14 -30 22 -6 9 -14 14 -16 11 -3 -3 -7 -88 -10 -190 -7 -215 -5 -190 -17
-190 -7 0 -10 260 -10 759 0 715 -1 760 -17 764 -17 4 -17 5 0 6 15 1 17 12
17 86 0 68 -3 85 -15 85 -9 0 -12 6 -8 16 5 13 7 13 14 2 5 -7 9 93 9 230 0
235 -1 242 -20 242 -14 0 -20 -7 -21 -22z m-12 -64 c-3 -3 -12 -4 -19 -1 -8 3
-5 6 6 6 11 1 17 -2 13 -5z m13 -30 c0 -9 -7 -14 -17 -12 -25 5 -28 28 -4 28
12 0 21 -6 21 -16z m-16 -60 c3 -8 2 -12 -4 -9 -6 3 -10 10 -10 16 0 14 7 11
14 -7z m-54 -104 c0 -5 -5 -10 -11 -10 -5 0 -7 5 -4 10 3 6 8 10 11 10 2 0 4
-4 4 -10z m40 -500 c12 -8 9 -10 -12 -10 -16 0 -28 5 -28 10 0 13 20 13 40 0z
m-7 -37 c-7 -2 -19 -2 -25 0 -7 3 -2 5 12 5 14 0 19 -2 13 -5z m-16 -49 c-3
-3 -12 -4 -19 -1 -8 3 -5 6 6 6 11 1 17 -2 13 -5z m53 -46 c0 -5 -7 -16 -15
-24 -9 -9 -15 -11 -15 -4 0 6 -9 10 -20 8 -27 -4 -26 12 2 27 24 12 48 9 48
-7z m-15 -70 c6 -4 -10 -7 -35 -6 -29 1 -35 2 -17 5 15 2 27 9 27 15 0 7 3 7
8 2 4 -5 12 -12 17 -16z m35 2 c0 -5 -4 -10 -10 -10 -5 0 -10 5 -10 10 0 6 5
10 10 10 6 0 10 -4 10 -10z m-87 -47 c-7 -2 -21 -2 -30 0 -10 3 -4 5 12 5 17
0 24 -2 18 -5z m-3 -37 c0 -2 -9 -6 -20 -9 -11 -3 -20 -1 -20 4 0 5 9 9 20 9
11 0 20 -2 20 -4z m40 -10 c0 -2 -7 -6 -15 -10 -8 -3 -15 -1 -15 4 0 6 7 10
15 10 8 0 15 -2 15 -4z m0 -59 c-10 -9 -14 -9 -17 1 -3 6 -12 12 -21 12 -14 0
-15 2 -3 9 21 14 58 -7 41 -22z m-3 -89 c-3 -8 -6 -5 -6 6 -1 11 2 17 5 13 3
-3 4 -12 1 -19z m170 -750 c-3 -8 -6 -5 -6 6 -1 11 2 17 5 13 3 -3 4 -12 1
-19z m-81 -359 c1 -65 -2 -122 -7 -125 -5 -3 -9 52 -9 127 0 73 3 129 7 125 4
-4 8 -61 9 -127z m-136 -114 c93 -30 179 -31 252 -4 34 12 71 32 82 43 22 22
32 10 22 -27 -4 -16 -23 -30 -63 -48 -49 -20 -74 -24 -163 -24 -89 0 -112 3
-155 24 -62 29 -85 49 -85 73 0 19 0 19 28 0 15 -10 52 -27 82 -37z"/>
<path d="M7457 3873 c-4 -3 -7 -28 -7 -55 0 -41 3 -48 20 -48 11 0 20 -4 20
-10 0 -5 7 -10 16 -10 13 0 14 9 10 52 -4 29 -11 57 -16 62 -6 6 -10 6 -10 2
0 -5 -6 -3 -13 3 -8 6 -17 8 -20 4z m30 -45 c-3 -8 -6 -5 -6 6 -1 11 2 17 5
13 3 -3 4 -12 1 -19z"/>
<path d="M12173 3853 c9 -2 23 -2 30 0 6 3 -1 5 -18 5 -16 0 -22 -2 -12 -5z"/>
<path d="M7567 3825 c-6 -15 10 -32 20 -21 4 3 1 6 -7 6 -10 0 -10 3 0 15 7 9
8 15 2 15 -5 0 -12 -7 -15 -15z"/>
<path d="M12185 3810 c44 -11 65 -11 65 0 0 6 -21 9 -47 9 -43 -1 -45 -2 -18
-9z"/>
<path d="M12130 3786 c0 -2 7 -6 15 -10 8 -3 15 -1 15 4 0 6 -7 10 -15 10 -8
0 -15 -2 -15 -4z"/>
<path d="M12184 3771 c-9 -9 -4 -18 11 -18 8 0 15 4 15 8 0 5 7 6 15 3 8 -4
15 -1 15 5 0 10 -46 12 -56 2z"/>
<path d="M7550 3760 c0 -5 4 -10 9 -10 6 0 13 5 16 10 3 6 -1 10 -9 10 -9 0
-16 -4 -16 -10z"/>
<path d="M7450 3586 c0 -169 1 -175 20 -173 22 1 26 13 8 21 -7 2 -2 4 11 3
16 -1 25 4 26 16 3 13 -4 17 -27 17 -34 0 -35 23 -1 28 20 3 40 42 22 42 -5 0
-9 5 -9 11 0 5 5 7 10 4 6 -3 10 3 10 14 0 12 -6 21 -12 21 -9 0 -8 3 2 10 12
7 10 11 -10 18 l-24 9 22 12 c16 9 22 20 20 41 -1 17 -6 30 -10 30 -4 0 -5 7
-2 15 4 8 1 15 -5 15 -6 0 -11 -9 -11 -20 0 -12 -7 -20 -17 -20 -12 0 -14 3
-6 8 16 10 12 52 -4 52 -10 0 -13 -39 -13 -174z"/>
<path d="M12205 3740 c-3 -5 1 -10 9 -10 9 0 16 5 16 10 0 6 -4 10 -9 10 -6 0
-13 -4 -16 -10z"/>
<path d="M7262 3720 c0 -14 2 -19 5 -12 2 6 2 18 0 25 -3 6 -5 1 -5 -13z"/>
<path d="M12173 3703 c9 -2 25 -2 35 0 9 3 1 5 -18 5 -19 0 -27 -2 -17 -5z"/>
<path d="M12165 3682 c-6 -7 15 -32 27 -32 5 0 6 5 2 12 -5 8 -2 9 9 5 10 -3
17 -3 17 2 0 10 -47 21 -55 13z"/>
<path d="M7560 3670 c0 -5 5 -10 11 -10 5 0 7 5 4 10 -3 6 -8 10 -11 10 -2 0
-4 -4 -4 -10z"/>
<path d="M12174 3625 c25 -19 32 -19 40 0 4 11 -2 15 -27 15 -30 -1 -31 -1
-13 -15z"/>
<path d="M7555 3590 c-4 -6 8 -10 29 -10 20 0 36 5 36 10 0 6 -13 10 -29 10
-17 0 -33 -4 -36 -10z"/>
<path d="M12178 3593 c6 -2 18 -2 25 0 6 3 1 5 -13 5 -14 0 -19 -2 -12 -5z"/>
<path d="M12180 3570 c-9 -6 -10 -10 -3 -10 6 0 15 5 18 10 8 12 4 12 -15 0z"/>
<path d="M5441 3523 c1 -18 3 -22 6 -10 4 16 8 15 30 -10 l26 -27 9 24 c5 13
7 28 4 34 -2 6 -5 3 -5 -6 -1 -16 -3 -16 -21 2 -29 29 -50 26 -49 -7z"/>
<path d="M7553 3536 c-4 -5 -1 -12 5 -14 7 -2 10 -8 6 -13 -12 -19 12 -7 27
14 16 22 16 23 -8 23 -13 0 -27 -4 -30 -10z"/>
<path d="M7570 3481 c-20 -6 -22 -8 -8 -13 20 -8 58 1 58 13 0 10 -14 10 -50
0z"/>
<path d="M7588 3286 c-16 -17 -28 -36 -28 -43 0 -7 -5 -13 -11 -13 -10 0 -39
-24 -39 -32 0 -2 24 -3 53 -2 l52 2 3 51 c5 69 1 73 -30 37z m12 -68 c0 -4 -7
-8 -15 -8 -8 0 -15 4 -15 8 0 5 7 9 15 9 8 0 15 -4 15 -9z"/>
<path d="M10091 3236 c2 -2 33 -6 69 -9 41 -3 54 -2 35 3 -31 8 -112 13 -104
6z"/>
<path d="M7532 3179 c2 -7 10 -15 17 -17 8 -3 12 1 9 9 -2 7 -10 15 -17 17 -8
3 -12 -1 -9 -9z"/>
<path d="M7575 3180 c3 -5 10 -10 16 -10 5 0 9 5 9 10 0 6 -7 10 -16 10 -8 0
-12 -4 -9 -10z"/>
<path d="M10330 3166 c0 -2 7 -7 16 -10 8 -3 12 -2 9 4 -6 10 -25 14 -25 6z"/>
<path d="M7453 3135 c0 -20 4 -25 26 -25 25 1 25 1 6 16 -11 8 -19 18 -17 22
2 3 -1 8 -6 10 -5 1 -9 -9 -9 -23z"/>
<path d="M9795 3130 c-3 -6 1 -7 9 -4 18 7 21 14 7 14 -6 0 -13 -4 -16 -10z"/>
<path d="M9878 3123 c7 -3 16 -2 19 1 4 3 -2 6 -13 5 -11 0 -14 -3 -6 -6z"/>
<path d="M7462 3076 c-1 -19 3 -23 24 -23 23 0 24 1 9 17 -8 9 -12 20 -8 23 3
4 0 7 -8 7 -8 0 -16 -11 -17 -24z"/>
<path d="M9736 3084 c-21 -20 -20 -23 3 -17 11 3 22 11 25 19 7 19 -9 18 -28
-2z"/>
<path d="M10236 3015 c-3 -8 -3 -15 0 -15 3 0 12 7 20 15 13 13 13 15 1 15 -8
0 -17 -7 -21 -15z"/>
<path d="M9861 3009 c-1 -18 -25 -32 -55 -33 -11 -1 -21 -6 -23 -11 -2 -6 20
-11 56 -11 33 0 57 4 55 8 -3 5 -13 8 -22 7 -31 -3 -36 1 -18 14 11 8 16 20
13 28 -4 11 -6 10 -6 -2z"/>
<path d="M9810 2990 c0 -5 5 -10 11 -10 5 0 7 5 4 10 -3 6 -8 10 -11 10 -2 0
-4 -4 -4 -10z"/>
<path d="M7452 2945 c-1 -25 3 -45 8 -45 6 0 8 17 6 37 -3 23 0 40 7 45 8 5 7
8 -4 8 -13 0 -17 -10 -17 -45z"/>
<path d="M10218 2983 c7 -3 16 -2 19 1 4 3 -2 6 -13 5 -11 0 -14 -3 -6 -6z"/>
<path d="M9650 2950 c-9 -6 -10 -10 -3 -10 6 0 15 5 18 10 8 12 4 12 -15 0z"/>
<path d="M9960 2950 c-36 -5 -74 -13 -85 -18 -11 -5 -47 -20 -80 -32 -54 -21
-113 -51 -140 -72 -5 -5 -35 -27 -65 -51 -65 -50 -132 -117 -167 -170 -22 -31
-27 -35 -37 -22 -9 13 -15 13 -38 3 -32 -15 -36 -33 -10 -47 16 -10 16 -10 0
-11 -10 0 -18 -7 -18 -15 0 -8 -9 -24 -21 -36 -11 -11 -21 -29 -22 -40 -1 -10
-4 -19 -8 -19 -3 0 -11 -12 -18 -27 -7 -15 -22 -34 -34 -43 -21 -15 -26 -16
-57 -19 -11 -1 -9 -7 8 -21 13 -11 18 -21 12 -25 -5 -3 -10 -1 -10 5 0 6 -5 8
-10 5 -8 -5 -7 -11 1 -21 8 -9 8 -14 1 -14 -6 0 -25 -21 -43 -47 -40 -58 -61
-79 -88 -88 -23 -7 -29 -25 -8 -25 8 0 7 -3 -3 -9 -8 -6 -18 -7 -23 -4 -5 3
-17 -4 -28 -16 -11 -12 -24 -19 -30 -16 -5 4 -9 -6 -9 -20 l0 -26 28 19 c15
11 37 22 49 26 28 9 105 85 97 97 -3 5 0 9 5 9 15 0 13 -21 -3 -43 -9 -11 -12
-33 -9 -60 4 -38 3 -40 -10 -24 -17 20 -40 22 -54 5 -7 -9 -3 -35 13 -83 23
-70 23 -70 4 -136 -10 -36 -31 -86 -46 -110 -46 -71 -64 -103 -70 -121 -4 -10
-10 -18 -15 -18 -5 0 -9 -7 -9 -15 0 -24 32 -17 69 15 18 17 36 30 38 30 10 0
-18 -36 -38 -50 -12 -8 -29 -23 -38 -32 -20 -20 -62 -31 -79 -20 -19 13 -22
49 -6 79 18 37 18 51 -2 32 -27 -28 -30 -93 -4 -134 20 -32 27 -36 59 -35 54
3 57 2 57 -22 0 -13 1 -40 2 -62 l2 -39 43 7 42 6 -34 -15 c-19 -8 -51 -18
-72 -21 -37 -6 -38 -5 -42 27 -2 19 -3 -15 -2 -76 2 -94 6 -120 30 -175 34
-81 46 -120 37 -120 -4 0 -17 21 -29 48 -40 83 -132 203 -177 229 -91 52 -170
86 -180 76 -3 -3 13 -40 36 -82 23 -42 52 -96 65 -120 12 -24 27 -49 31 -55
26 -34 21 -46 -41 -90 -68 -48 -139 -78 -83 -35 l28 22 -43 18 c-24 10 -50 18
-56 18 -19 1 -16 -27 4 -38 10 -5 15 -13 11 -16 -4 -4 0 -15 9 -24 16 -15 15
-16 -13 -19 -39 -5 -54 -20 -31 -33 9 -6 17 -19 17 -30 0 -20 -4 -21 -62 -14
-35 3 -74 8 -88 11 -14 2 -32 0 -40 -5 -12 -8 -12 -12 3 -29 30 -33 21 -44
-30 -42 -71 4 -75 2 -68 -20 5 -16 2 -20 -17 -20 -13 0 -28 -4 -33 -9 -6 -6
-26 -13 -45 -16 -19 -3 -43 -15 -53 -26 -10 -10 -31 -19 -47 -19 -16 0 -40 -4
-54 -10 -29 -11 -26 -31 11 -74 22 -25 22 -26 3 -36 -10 -5 -24 -10 -31 -10
-24 0 -99 -44 -105 -62 -8 -26 -34 -23 -34 5 -1 21 -1 21 -14 4 -12 -15 -17
-16 -34 -6 -26 16 -31 44 -24 125 4 54 2 64 -11 64 -17 0 -84 -36 -105 -57
-24 -23 -38 -14 -69 46 l-31 59 34 -5 c29 -5 34 -2 39 20 4 16 1 34 -10 50
-15 24 -15 26 2 35 14 8 18 23 18 68 0 37 5 59 13 62 17 5 15 32 -3 32 -8 0
-15 4 -15 10 0 5 8 6 18 3 16 -6 16 -6 -1 11 -17 17 -33 18 -186 14 -179 -5
-240 -18 -136 -29 59 -6 59 -6 -12 -4 -40 1 -73 1 -73 -1 0 -2 11 -15 25 -30
28 -30 31 -46 11 -63 -11 -10 -11 -17 5 -48 14 -27 16 -40 8 -55 -12 -23 -5
-50 13 -47 42 5 48 0 48 -48 0 -27 -7 -57 -15 -67 -15 -20 -15 -20 -30 0 -9
10 -21 31 -26 47 -10 25 -29 38 -29 19 0 -4 -16 -16 -35 -26 -30 -17 -35 -24
-35 -55 1 -20 9 -54 20 -76 22 -45 26 -125 8 -143 -9 -9 -9 -18 0 -37 17 -36
15 -72 -4 -105 -16 -26 -16 -29 7 -59 14 -19 23 -43 21 -57 -4 -26 26 -44 76
-44 30 0 23 -11 -23 -34 -28 -15 -4 -16 313 -16 l342 0 57 30 c31 16 62 30 69
30 8 0 14 5 14 10 0 6 5 10 12 10 6 0 35 12 65 28 l55 27 24 -30 c47 -59 53
-65 71 -58 40 14 45 25 38 79 -7 59 -15 51 140 134 44 24 82 46 85 49 3 4 16
12 30 19 14 7 39 21 55 32 32 21 84 51 125 72 14 7 27 16 30 20 3 3 17 9 30
13 22 5 26 3 28 -21 1 -15 -2 -32 -7 -38 -5 -6 -11 -38 -14 -72 -7 -78 -24
-149 -47 -199 -10 -22 -21 -61 -23 -87 l-5 -48 1349 0 1349 0 -1 42 c0 43 -5
70 -33 203 -8 39 -19 90 -24 115 -5 25 -12 133 -16 240 -7 202 -24 335 -69
520 -14 58 -30 132 -35 165 -5 33 -12 71 -16 85 -3 14 -9 50 -14 80 -5 30 -26
111 -47 180 -21 69 -43 145 -51 170 -17 60 -34 107 -56 156 -10 22 -18 49 -18
60 -1 24 -23 54 -41 54 -11 0 -11 2 1 10 12 8 9 10 -13 10 -16 0 -26 -4 -22
-10 9 -14 -8 -12 -24 3 -10 8 -12 8 -7 0 3 -6 2 -14 -4 -18 -6 -4 -10 5 -10
19 0 14 -4 26 -8 26 -5 0 -13 26 -19 58 -24 126 -32 148 -112 312 -123 255
-249 379 -454 450 -69 24 -298 35 -407 20z m-652 -527 c1 -26 1 -27 -13 -9 -8
10 -12 23 -9 27 10 17 20 9 22 -18z m-63 -82 c-22 -21 -42 -37 -44 -35 -6 6
62 74 74 74 6 0 -8 -18 -30 -39z m38 -6 c-3 -9 -8 -14 -10 -11 -3 3 -2 9 2 15
9 16 15 13 8 -4z m274 -77 c-2 -13 -4 -3 -4 22 0 25 2 35 4 23 2 -13 2 -33 0
-45z m-308 -20 c-6 -24 -5 -38 7 -56 17 -26 11 -43 -8 -24 -13 13 -16 67 -5
95 11 29 16 19 6 -15z m65 -3 c3 -9 0 -12 -9 -9 -7 3 -16 12 -19 19 -3 9 0 12
9 9 7 -3 16 -12 19 -19z m143 -2 c-13 -13 -89 -23 -105 -13 -15 8 -15 10 3 11
11 1 32 0 46 -1 14 0 32 6 39 16 10 11 16 12 18 4 2 -6 2 -14 -1 -17z m138
-33 c3 -6 -1 -7 -9 -4 -18 7 -21 14 -7 14 6 0 13 -4 16 -10z m-451 -15 c-4 -8
-10 -15 -15 -15 -4 0 -6 7 -3 15 4 8 10 15 15 15 4 0 6 -7 3 -15z m3 -62 c-3
-10 -5 -4 -5 12 0 17 2 24 5 18 2 -7 2 -21 0 -30z m540 31 c-3 -3 -12 -4 -19
-1 -8 3 -5 6 6 6 11 1 17 -2 13 -5z m-469 -49 c-3 -3 -9 2 -12 12 -6 14 -5 15
5 6 7 -7 10 -15 7 -18z m90 4 c19 -30 11 -32 -17 -3 -15 15 -18 24 -9 24 7 0
19 -9 26 -21z m497 -19 c3 -6 -1 -7 -9 -4 -18 7 -21 14 -7 14 6 0 13 -4 16
-10z m-98 -32 c-3 -8 -6 -5 -6 6 -1 11 2 17 5 13 3 -3 4 -12 1 -19z m-492 -8
c3 -6 -1 -7 -9 -4 -18 7 -21 14 -7 14 6 0 13 -4 16 -10z m1828 3 c-7 -2 -21
-2 -30 0 -10 3 -4 5 12 5 17 0 24 -2 18 -5z m-1965 -49 c7 -15 8 -24 2 -24 -6
0 -10 7 -10 15 0 9 -7 18 -15 21 -8 4 -15 10 -15 15 0 16 27 -2 38 -27z m127
26 c3 -5 -1 -10 -10 -10 -9 0 -13 5 -10 10 3 6 8 10 10 10 2 0 7 -4 10 -10z
m712 -16 c-6 -6 -47 9 -47 17 0 5 11 3 25 -3 14 -6 24 -13 22 -14z m1060 -21
c-3 -10 -5 -2 -5 17 0 19 2 27 5 18 2 -10 2 -26 0 -35z m-1280 -40 c-2 -16 -4
-3 -4 27 0 30 2 43 4 28 2 -16 2 -40 0 -55z m-250 61 c-3 -3 -12 -4 -19 -1 -8
3 -5 6 6 6 11 1 17 -2 13 -5z m-195 -69 c-8 -16 -9 -16 -15 -1 -4 10 -3 15 3
11 6 -3 10 -1 10 6 0 7 3 10 6 6 3 -3 2 -13 -4 -22z m-135 -32 c-3 -10 -5 -2
-5 17 0 19 2 27 5 18 2 -10 2 -26 0 -35z m590 -55 c-2 -13 -4 -3 -4 22 0 25 2
35 4 23 2 -13 2 -33 0 -45z m-334 -20 c16 -10 -3 -9 -28 2 -11 5 -14 9 -7 9 6
1 13 15 14 34 l1 32 4 -35 c3 -19 10 -38 16 -42z m-40 45 c-7 -2 -13 -12 -13
-20 0 -9 -3 -14 -6 -10 -10 10 4 37 18 36 10 0 10 -2 1 -6z m1304 -175 c-2
-35 -3 -9 -3 57 0 66 1 94 3 63 2 -32 2 -86 0 -120z m-906 -76 c-7 -12 -9 -5
-7 26 1 23 -1 67 -4 97 -3 31 -4 58 -1 61 11 11 22 -166 12 -184z m509 148 c0
-5 -7 -10 -15 -10 -8 0 -15 5 -15 10 0 6 7 10 15 10 8 0 15 -4 15 -10z m-820
-34 c0 -3 -4 -8 -10 -11 -5 -3 -10 -1 -10 4 0 6 5 11 10 11 6 0 10 -2 10 -4z
m-339 -69 c-10 -9 -11 -8 -5 6 3 10 9 15 12 12 3 -3 0 -11 -7 -18z m1589 -124
c0 -32 -5 -28 -14 10 -4 19 -3 26 4 22 5 -3 10 -18 10 -32z m-1580 -17 c0 -3
-4 -8 -10 -11 -5 -3 -10 -1 -10 4 0 6 5 11 10 11 6 0 10 -2 10 -4z m-10 -39
c-14 -7 -31 -17 -38 -24 -15 -15 -52 -27 -59 -19 -3 3 6 8 20 11 14 4 32 14
41 24 8 9 25 17 38 18 23 1 22 1 -2 -10z m200 3 c0 -5 -5 -10 -11 -10 -5 0 -7
5 -4 10 3 6 8 10 11 10 2 0 4 -4 4 -10z m-120 -74 c0 -3 -4 -8 -10 -11 -5 -3
-10 -1 -10 4 0 6 5 11 10 11 6 0 10 -2 10 -4z m-93 -62 c-3 -3 -12 -4 -19 -1
-8 3 -5 6 6 6 11 1 17 -2 13 -5z m876 -1 c-7 -2 -19 -2 -25 0 -7 3 -2 5 12 5
14 0 19 -2 13 -5z m-55 -10 c-10 -2 -18 -8 -18 -13 0 -4 -11 -11 -25 -14 -13
-3 -52 -22 -85 -42 -34 -20 -64 -33 -67 -30 -4 3 -1 6 5 6 6 0 17 6 24 13 20
18 151 85 168 85 10 0 9 -2 -2 -5z m-722 -89 c-30 -21 -45 -16 -16 6 14 10 27
16 30 13 3 -2 -4 -11 -14 -19z m-46 -24 c0 -5 -18 -15 -40 -21 -22 -7 -40 -16
-40 -21 0 -4 -10 -8 -22 -8 -22 0 -22 0 -3 14 11 7 35 17 52 20 18 4 35 12 38
17 8 12 15 12 15 -1z m560 -4 c0 -2 -7 -7 -16 -10 -8 -3 -12 -2 -9 4 6 10 25
14 25 6z m-711 -109 c10 -48 15 -87 11 -87 -4 0 -11 24 -15 53 -4 28 -11 54
-15 57 -4 3 -10 23 -14 45 -14 78 14 21 33 -68z m-349 -267 c0 -5 -5 -10 -11
-10 -5 0 -7 5 -4 10 3 6 8 10 11 10 2 0 4 -4 4 -10z m424 -60 c4 -4 4 -16 -2
-25 -6 -12 -11 -14 -16 -6 -4 6 -1 11 6 11 26 1 -18 19 -56 23 -20 2 -40 8
-44 12 -9 10 101 -5 112 -15z m-94 -16 c0 -8 -5 -12 -10 -9 -6 4 -8 11 -5 16
9 14 15 11 15 -7z m190 -4 c0 -5 -7 -7 -15 -4 -8 4 -15 8 -15 10 0 2 7 4 15 4
8 0 15 -4 15 -10z m-70 -30 c0 -5 -4 -10 -10 -10 -5 0 -10 5 -10 10 0 6 5 10
10 10 6 0 10 -4 10 -10z m511 -36 c22 -25 22 -26 3 -16 -12 6 -24 18 -28 27
-8 21 -3 19 25 -11z m-604 -26 c-3 -7 -5 -2 -5 12 0 14 2 19 5 13 2 -7 2 -19
0 -25z m-80 -105 c-3 -10 -5 -2 -5 17 0 19 2 27 5 18 2 -10 2 -26 0 -35z
m1493 0 c6 -16 14 -37 19 -48 27 -61 52 -146 48 -162 -3 -12 -5 -10 -6 9 0 15
-5 29 -10 33 -5 3 -13 20 -16 37 -8 36 -42 105 -56 114 -12 7 -11 44 1 44 6 0
15 -12 20 -27z m-3150 -67 c0 -8 -7 -16 -15 -20 -12 -4 -13 -2 -2 14 14 24 17
25 17 6z m1690 -116 l25 -8 -27 -1 c-21 -1 -26 -5 -21 -17 5 -14 3 -13 -15 2
-38 32 -21 43 38 24z m1537 -72 c-3 -8 -6 -5 -6 6 -1 11 2 17 5 13 3 -3 4 -12
1 -19z m-1517 -8 c0 -5 -7 -7 -15 -4 -8 4 -15 8 -15 10 0 2 7 4 15 4 8 0 15
-4 15 -10z m-66 -47 c-8 -16 -17 -45 -20 -65 -4 -21 -10 -38 -15 -38 -12 0
-12 37 0 44 5 3 12 21 15 40 4 19 12 37 19 39 7 3 13 6 14 6 1 1 -5 -11 -13
-26z m171 -53 c13 -6 15 -9 5 -9 -8 0 -22 4 -30 9 -18 12 -2 12 25 0z"/>
<path d="M10358 2953 c6 -2 18 -2 25 0 6 3 1 5 -13 5 -14 0 -19 -2 -12 -5z"/>
<path d="M9740 2940 c0 -5 6 -10 13 -10 8 0 7 -4 -3 -10 -13 -8 -12 -10 3 -10
19 0 20 1 11 24 -7 18 -24 22 -24 6z"/>
<path d="M9690 2910 c-9 -6 -10 -10 -3 -10 6 0 15 5 18 10 8 12 4 12 -15 0z"/>
<path d="M7612 2720 c0 -14 2 -19 5 -12 2 6 2 18 0 25 -3 6 -5 1 -5 -13z"/>
<path d="M7609 2638 c-6 -160 -5 -259 2 -264 5 -3 9 63 9 145 0 83 -2 151 -5
151 -3 0 -6 -15 -6 -32z"/>
<path d="M4800 2610 c8 -5 20 -10 25 -10 6 0 3 5 -5 10 -8 5 -19 10 -25 10 -5
0 -3 -5 5 -10z"/>
<path d="M5331 2524 c0 -11 3 -14 6 -6 3 7 2 16 -1 19 -3 4 -6 -2 -5 -13z"/>
<path d="M7455 2530 c-3 -5 1 -10 10 -10 9 0 13 5 10 10 -3 6 -8 10 -10 10 -2
0 -7 -4 -10 -10z"/>
<path d="M7450 2495 c0 -8 5 -15 10 -15 6 0 10 6 10 13 0 8 4 7 10 -3 7 -11 4
-17 -13 -22 -17 -4 -13 -6 16 -7 28 -1 37 3 37 16 0 9 -3 14 -6 10 -4 -3 -13
0 -21 8 -19 19 -43 19 -43 0z"/>
<path d="M4885 2480 c-3 -5 3 -10 15 -10 12 0 18 5 15 10 -3 6 -10 10 -15 10
-5 0 -12 -4 -15 -10z"/>
<path d="M9086 2446 c-16 -13 -24 -26 -18 -30 6 -3 12 -3 14 2 1 4 16 17 32
30 16 12 22 22 15 22 -8 -1 -27 -11 -43 -24z"/>
<path d="M9168 2438 c-10 -10 -14 -18 -9 -18 10 0 36 29 30 34 -2 1 -12 -6
-21 -16z"/>
<path d="M7450 2441 c0 -6 9 -9 20 -8 11 1 20 5 20 9 0 4 -9 8 -20 8 -11 0
-20 -4 -20 -9z"/>
<path d="M7450 2410 c0 -5 4 -10 9 -10 6 0 13 5 16 10 3 6 -1 10 -9 10 -9 0
-16 -4 -16 -10z"/>
<path d="M9129 2393 c-21 -24 -72 -63 -81 -63 -4 0 -8 -4 -8 -9 0 -16 50 15
81 49 26 28 34 40 26 40 -1 0 -10 -8 -18 -17z"/>
<path d="M5162 2370 c0 -19 2 -27 5 -17 2 9 2 25 0 35 -3 9 -5 1 -5 -18z"/>
<path d="M7460 2380 c-8 -5 -10 -10 -5 -10 6 0 17 5 25 10 8 5 11 10 5 10 -5
0 -17 -5 -25 -10z"/>
<path d="M5330 2353 c0 -10 45 -133 106 -293 l13 -35 2 60 c3 117 -5 145 -53
194 -12 14 -33 38 -45 55 -13 16 -23 25 -23 19z"/>
<path d="M7459 2358 c-5 -18 -9 -62 -6 -58 16 18 26 50 17 55 -5 3 -10 5 -11
3z"/>
<path d="M7505 2340 c3 -5 10 -10 16 -10 5 0 9 5 9 10 0 6 -7 10 -16 10 -8 0
-12 -4 -9 -10z"/>
<path d="M7607 2333 c-3 -5 -1 -17 4 -28 7 -17 8 -17 8 8 1 27 -4 34 -12 20z"/>
<path d="M5510 2296 c0 -2 14 -18 31 -35 27 -27 38 -31 85 -31 41 0 54 4 54
15 0 8 -9 15 -20 15 -11 0 -37 6 -57 14 -45 17 -93 28 -93 22z"/>
<path d="M9082 2284 c-12 -8 -31 -13 -41 -9 -11 3 -22 2 -25 -3 -3 -6 3 -12
13 -15 22 -5 81 18 81 33 0 13 -1 13 -28 -6z"/>
<path d="M7458 2283 c7 -3 16 -2 19 1 4 3 -2 6 -13 5 -11 0 -14 -3 -6 -6z"/>
<path d="M7608 2255 c-3 -14 -1 -25 3 -25 5 0 9 11 9 25 0 14 -2 25 -4 25 -2
0 -6 -11 -8 -25z"/>
<path d="M7498 2263 c7 -3 16 -2 19 1 4 3 -2 6 -13 5 -11 0 -14 -3 -6 -6z"/>
<path d="M7450 2210 c0 -5 7 -7 15 -4 8 4 15 8 15 10 0 2 -7 4 -15 4 -8 0 -15
-4 -15 -10z"/>
<path d="M7596 2204 c6 -2 9 -17 6 -33 -2 -16 1 -32 7 -35 7 -5 11 7 11 33 0
33 -4 41 -17 40 -10 0 -13 -3 -7 -5z"/>
<path d="M8970 2170 c-6 -12 -9 -29 -7 -38 3 -12 5 -11 6 6 1 12 7 22 16 22
17 0 20 16 6 25 -6 3 -15 -4 -21 -15z"/>
<path d="M7517 2160 c-12 -12 -15 -20 -8 -25 6 -3 11 -1 11 4 0 6 5 11 11 11
5 0 7 -4 4 -10 -3 -5 -1 -10 4 -10 6 0 11 11 11 25 0 29 -8 31 -33 5z"/>
<path d="M4756 2143 c-8 -19 14 -37 28 -23 10 10 1 40 -13 40 -5 0 -12 -8 -15
-17z"/>
<path d="M5142 2148 c2 -6 10 -14 16 -16 7 -2 10 2 6 12 -7 18 -28 22 -22 4z"/>
<path d="M7450 2145 c0 -8 5 -15 10 -15 6 0 10 7 10 15 0 8 -4 15 -10 15 -5 0
-10 -7 -10 -15z"/>
<path d="M10995 2140 c-4 -6 -10 -8 -15 -5 -5 3 -12 0 -16 -6 -5 -9 0 -10 17
-6 13 4 27 7 32 7 11 0 9 20 -2 20 -6 0 -13 -5 -16 -10z"/>
<path d="M5140 2110 c0 -5 4 -10 10 -10 5 0 7 -6 4 -14 -3 -8 1 -27 10 -43
l15 -28 -5 40 c-3 22 -7 46 -10 53 -4 14 -24 16 -24 2z"/>
<path d="M7455 2110 c-3 -5 3 -10 15 -10 12 0 18 5 15 10 -3 6 -10 10 -15 10
-5 0 -12 -4 -15 -10z"/>
<path d="M10983 2103 c9 -2 25 -2 35 0 9 3 1 5 -18 5 -19 0 -27 -2 -17 -5z"/>
<path d="M5117 1826 c-13 -33 25 -60 50 -35 13 13 6 39 -9 39 -5 0 -6 -4 -3
-10 3 -5 -1 -10 -9 -10 -8 0 -16 8 -18 18 -3 16 -4 15 -11 -2z"/>
<path d="M4780 1823 c0 -15 19 -37 26 -31 3 4 -1 14 -10 23 -9 9 -16 13 -16 8z"/>
<path d="M4950 1761 c0 -52 65 -131 108 -131 24 0 -7 62 -50 99 -47 42 -58 48
-58 32z"/>
<path d="M5338 1728 c-2 -23 -3 -78 -1 -78 6 0 33 61 33 75 0 18 -29 21 -32 3z"/>
<path d="M4910 1667 c0 -43 101 -177 133 -177 11 0 3 14 -25 43 -22 23 -56 64
-74 92 -19 27 -34 46 -34 42z"/>
<path d="M5190 1621 c0 -6 4 -13 10 -16 6 -3 7 1 4 9 -7 18 -14 21 -14 7z"/>
<path d="M5162 1600 c0 -14 2 -19 5 -12 2 6 2 18 0 25 -3 6 -5 1 -5 -13z"/>
<path d="M5231 1584 c0 -11 3 -14 6 -6 3 7 2 16 -1 19 -3 4 -6 -2 -5 -13z"/>
<path d="M5258 1545 c-2 -19 0 -35 4 -35 4 0 8 16 8 35 0 19 -2 35 -4 35 -2 0
-6 -16 -8 -35z"/>
<path d="M5240 1465 c0 -19 5 -35 10 -35 6 0 10 16 10 35 0 19 -4 35 -10 35
-5 0 -10 -16 -10 -35z"/>
<path d="M6760 1396 c0 -18 -3 -48 -7 -66 l-6 -33 34 7 c48 9 186 9 232 1 37
-7 37 -7 37 26 0 19 4 49 9 67 l10 32 -155 0 -154 0 0 -34z"/>
<path d="M7836 1372 c4 -31 8 -59 10 -61 6 -7 249 -6 252 2 1 4 2 31 2 61 l0
55 -135 0 -135 1 6 -58z"/>
<path d="M5240 1394 c0 -8 5 -12 10 -9 6 4 8 11 5 16 -9 14 -15 11 -15 -7z"/>
<path d="M5307 1403 c-11 -10 -8 -43 3 -43 5 0 9 11 8 25 -3 28 -2 27 -11 18z"/>
<path d="M8930 1362 c0 -18 5 -32 10 -32 6 0 8 11 4 28 -10 39 -14 40 -14 4z"/>
<path d="M5166 1362 c-3 -3 -6 -11 -6 -17 0 -15 47 -37 55 -26 3 5 13 7 23 4
14 -3 18 1 17 18 -1 19 -8 23 -43 25 -22 1 -43 0 -46 -4z"/>
<path d="M5505 1256 c-16 -6 -37 -17 -45 -25 -13 -13 -12 -14 9 -8 18 4 21 3
12 -6 -6 -6 -11 -20 -11 -31 0 -16 5 -14 31 15 34 38 54 70 42 68 -4 -1 -21
-6 -38 -13z"/>
<path d="M5401 1155 c-1 -32 3 -55 9 -55 6 0 10 24 10 55 0 30 -4 55 -8 55 -5
0 -10 -25 -11 -55z"/>
<path d="M5411 894 c0 -11 3 -14 6 -6 3 7 2 16 -1 19 -3 4 -6 -2 -5 -13z"/>
<path d="M5773 825 c-15 -18 -18 -25 -7 -25 8 0 14 -6 14 -12 0 -9 3 -9 9 1 5
8 7 21 4 29 -3 8 0 18 8 23 8 5 10 9 4 9 -5 0 -20 -12 -32 -25z"/>
<path d="M5720 720 c0 -11 -7 -20 -15 -20 -8 0 -15 -7 -15 -15 0 -22 10 -18
42 17 33 38 33 38 8 38 -13 0 -20 -7 -20 -20z"/>
<path d="M5892 705 c0 -16 2 -22 5 -12 2 9 2 23 0 30 -3 6 -5 -1 -5 -18z"/>
<path d="M5907 646 c-4 -10 -5 -21 -2 -24 9 -9 17 6 13 25 -3 17 -4 17 -11 -1z"/>
<path d="M5921 574 c0 -11 3 -14 6 -6 3 7 2 16 -1 19 -3 4 -6 -2 -5 -13z"/>
<path d="M5932 520 c0 -14 2 -19 5 -12 2 6 2 18 0 25 -3 6 -5 1 -5 -13z"/>
<path d="M5952 480 c0 -14 2 -19 5 -12 2 6 2 18 0 25 -3 6 -5 1 -5 -13z"/>
<path d="M5962 430 c0 -14 2 -19 5 -12 2 6 2 18 0 25 -3 6 -5 1 -5 -13z"/>
<path d="M5981 344 c0 -11 3 -14 6 -6 3 7 2 16 -1 19 -3 4 -6 -2 -5 -13z"/>
<path d="M6000 260 c0 -19 3 -21 12 -12 9 9 9 15 0 24 -9 9 -12 7 -12 -12z"/>
<path d="M5946 215 c4 -8 8 -15 10 -15 2 0 4 7 4 15 0 8 -4 15 -10 15 -5 0 -7
-7 -4 -15z"/>
<path d="M5916 185 c4 -16 10 -34 14 -38 11 -13 5 26 -8 48 -11 18 -12 17 -6
-10z"/>
<path d="M5960 174 c0 -6 7 -19 15 -30 8 -10 14 -14 14 -9 0 6 -6 19 -14 29
-8 11 -15 15 -15 10z"/>
<path d="M6140 171 c0 -5 7 -11 14 -14 10 -4 13 -1 9 9 -6 15 -23 19 -23 5z"/>
<path d="M5951 118 c1 -23 15 -52 21 -42 3 5 2 19 -3 32 -9 24 -19 30 -18 10z"/>
<path d="M6190 110 c0 -5 5 -10 11 -10 5 0 7 5 4 10 -3 6 -8 10 -11 10 -2 0
-4 -4 -4 -10z"/>
<path d="M3191 64 c0 -11 3 -14 6 -6 3 7 2 16 -1 19 -3 4 -6 -2 -5 -13z"/>
<path d="M6200 43 c-8 -2 -28 -11 -45 -18 -16 -7 -37 -15 -45 -18 -8 -3 17 -6
55 -6 82 -1 111 11 81 34 -21 16 -23 16 -46 8z"/>
<path d="M5980 33 c1 -19 17 -30 35 -23 19 7 19 7 -2 18 -25 14 -33 15 -33 5z"/>
</g>
</svg>
